<?xml version="1.0" standalone="no"?>
<!DOCTYPE svg PUBLIC "-//W3C//DTD SVG 1.1//EN" "http://www.w3.org/Graphics/SVG/1.1/DTD/svg11.dtd" >
<svg>
<metadata>
Created by FontForge 20120731 at Mon Jul  3 09:53:40 2017
 By Payten,,,
</metadata>
<defs>
<font id="nyu-classes-icons" horiz-adv-x="1024" >
  <font-face 
    font-family="nyu-classes-icons"
    font-weight="400"
    font-stretch="normal"
    units-per-em="1024"
    panose-1="2 0 5 3 0 0 0 0 0 0"
    ascent="960"
    descent="-64"
    bbox="-0.286437 -96 3372.44 960"
    underline-thickness="0"
    underline-position="0"
    unicode-range="U+0020-F1C8"
  />
<missing-glyph 
 />
    <glyph glyph-name=".notdef" 
 />
    <glyph glyph-name="space" unicode=" " horiz-adv-x="512" 
 />
    <glyph glyph-name="uniE000" unicode="&#xe000;" horiz-adv-x="3614" 
d="M241.228 641.46h61.802l203.264 -262.354l-0.00201416 262.354h65.582v-379.436h-55.838l-209.212 269.944v-269.944h-65.582v379.436h-0.0140076zM792.004 411.618l-150.694 229.842h79.134l105.698 -167.5l107.324 167.5h76.434l-150.688 -228.2v-151.236h-67.2079
v149.594zM1073.36 423.002v218.458h66.67v-215.732c0 -70.46 36.3199 -107.866 95.9399 -107.866c59.0901 0 95.4 35.238 95.4 105.156v218.442h66.66v-215.19c0 -113.288 -63.97 -170.21 -163.15 -170.21c-98.63 0 -161.52 56.922 -161.52 166.942zM1480.48 450.65v1.08401
c0 107.324 80.23 196.216 189.72 196.216c67.77 0 108.41 -24.938 147.44 -60.718l-20.05 -20.6c-33.0699 31.984 -71.01 55.838 -127.93 55.838c-91.0601 0 -159.91 -74.256 -159.91 -169.668v-1.08401c0 -95.954 69.9399 -170.752 160.45 -170.752
c54.76 0 92.15 21.142 130.64 59.09l18.9701 -18.432c-40.1101 -39.56 -83.4701 -66.138 -150.67 -66.138c-108.43 0.0320129 -188.66 86.214 -188.66 195.164zM1895.21 657.724h26.5701v-395.7h-26.5701v395.7zM2003.64 342.242v1.08398
c0 57.45 49.3099 89.976 120.87 89.976c38.49 0 65.04 -4.88 91.6101 -11.926v11.926c0 55.838 -34.1602 84.556 -91.0601 84.556c-33.6201 0 -61.26 -9.21597 -86.7301 -22.226l-9.76001 23.312c30.36 14.096 60.1801 23.838 98.11 23.838
c37.3901 0 67.21 -10.3 87.27 -30.358c18.4299 -18.432 28.1899 -43.912 28.1899 -78.05v-172.35h-26.0198v46.08c-18.9802 -26.564 -53.1201 -52.586 -105.7 -52.586c-51.5 0 -106.78 29.274 -106.78 86.724zM2216.66 365.552v31.442
c-23.3098 5.96402 -54.21 12.468 -93.77 12.468c-58.5498 0 -91.0599 -26.022 -91.0599 -64.512v-1.08401c0 -40.116 37.9401 -63.428 80.2101 -63.428c56.3699 0.0180054 104.62 34.698 104.62 85.114zM2313.71 296.72l15.72 21.142
c30.3601 -23.312 63.97 -36.322 99.2 -36.322c37.3901 0 66.6602 20.6 66.6602 52.586v1.08398c0 32.528 -34.6899 44.454 -73.1699 55.28c-44.9902 13.01 -94.8501 26.564 -94.8501 75.896v1.08401c0 44.454 37.3999 76.438 91.0601 76.438
c33.0698 0 70.46 -11.926 98.0999 -30.358l-14.0898 -22.226c-25.47 16.806 -55.8401 27.648 -85.1001 27.648c-37.95 0 -62.8899 -20.6 -62.8899 -48.248v-1.08398c0 -30.9 37.4099 -42.286 76.97 -53.654c44.45 -12.468 91.0598 -28.732 91.0598 -77.508v-1.08398
c0 -49.332 -42.2898 -80.76 -95.3999 -80.76c-40.1001 -0.0320129 -83.99 16.232 -113.27 40.086zM2577.72 296.72l15.73 21.142c30.3501 -23.312 63.97 -36.322 99.1899 -36.322c37.3901 0 66.6602 20.6 66.6602 52.586v1.08398c0 32.528 -34.6899 44.454 -73.1702 55.28
c-44.99 13.01 -94.8499 26.564 -94.8499 75.896v1.08401c0 44.454 37.3999 76.438 91.0601 76.438c33.0698 0 70.46 -11.926 98.1099 -30.358l-14.0999 -22.226c-25.4602 16.806 -55.8401 27.648 -85.1001 27.648c-37.95 0 -62.8701 -20.6 -62.8701 -48.248v-1.08398
c0 -30.9 37.4102 -42.286 76.9702 -53.654c44.45 -12.468 91.0598 -28.732 91.0598 -77.508v-1.08398c0 -49.332 -42.2898 -80.76 -95.3999 -80.76c-40.1101 -0.0320129 -84.01 16.232 -113.29 40.086zM2852.04 399.706v1.08401c0 80.218 56.3599 144.188 131.17 144.188
c77.51 0 126.84 -62.87 126.84 -144.73c0 -4.87997 0 -6.50598 -0.540039 -10.842h-229.28c4.88013 -68.834 54.21 -108.95 108.4 -108.95c42.8301 0 72.0901 18.974 94.8601 43.37l18.4299 -16.264c-28.1899 -30.358 -61.24 -52.044 -114.37 -52.044
c-72.6401 0 -135.51 57.992 -135.51 144.188zM3081.32 413.26c-3.79004 55.838 -35.78 107.324 -99.1902 107.324c-54.74 0 -97.0198 -46.08 -101.9 -107.324h201.09zM3163.75 296.72l15.73 21.142c30.3501 -23.312 63.97 -36.322 99.1899 -36.322
c37.3901 0 66.6602 20.6 66.6602 52.586v1.08398c0 32.528 -34.6902 44.454 -73.1702 55.28c-44.99 13.01 -94.8499 26.564 -94.8499 75.896v1.08401c0 44.454 37.3999 76.438 91.0601 76.438c33.0698 0 70.46 -11.926 98.1099 -30.358l-14.1001 -22.226
c-25.46 16.806 -55.8398 27.648 -85.0999 27.648c-37.95 0 -62.8701 -20.6 -62.8701 -48.248v-1.08398c0 -30.9 37.4102 -42.286 76.97 -53.654c44.4502 -12.468 91.0601 -28.732 91.0601 -77.508v-1.08398c0 -49.332 -42.29 -80.76 -95.3999 -80.76
c-40.1201 -0.0320129 -84.01 16.232 -113.29 40.086z" />
    <glyph glyph-name="uniE001" unicode="&#xe001;" horiz-adv-x="1792" 
d="M885.274 571.636h51.93l119.816 -157.516v157.516h55.53v-255.732h-47.77l-123.904 162.598v-162.598h-55.604zM1242.38 416.704l-98.34 154.932h65.8199l61.03 -102.644l62.1 102.644h63.9401l-98.3401 -153.792v-101.952h-56.21v100.812zM1427.96 425.524v146.112
h56.3301v-144.64c0 -41.652 20.73 -63.296 55.14 -63.296c34.3899 0 55.1799 20.876 55.1799 61.414v146.522h56.27v-144.244c0 -77.504 -43.47 -115.508 -112.26 -115.508c-68.64 0 -110.66 38.286 -110.66 113.64zM768 192h-512v512h512v-512zM431.436 539.148
c-20.556 -22.298 -30.668 -102.234 58.24 -102.234h2.34201c-55.322 30.592 -48.268 75.942 -26.508 107.66c2.71399 3.93005 -13.53 41.2921 -14.08 35.9301c-1.77798 -15.8961 -16.46 -35.3521 -19.994 -41.356zM506.714 438.656
c-36.07 67.738 39.462 112.986 39.462 121.292c0 23.564 -15.552 67.636 -17.062 61.76c-5.28601 -20.596 -34.164 -51.2 -40.09 -57.676c-50.996 -56.102 -38.182 -101.196 17.69 -125.376v0zM514.394 438.08c4.724 68.876 71.322 76.596 76.518 90.036
c8.80603 22.938 -9.95801 65.562 -11.2 62.412c-6.47595 -17.088 -19.994 -31.834 -19.994 -31.834c-54.924 -41.6899 -65.78 -75.852 -45.952 -118.822zM521.446 436.916c107.162 -8.85797 101.236 114.138 101.236 114.138
c-6.47601 -15.884 -20.032 -23.732 -21.184 -25.242c-13.286 -17.792 -67.648 -19.444 -80.052 -87.194v-1.70203zM544.972 406.31v21.184h-72.96v-21.184h72.96zM502.618 257.946c0.575989 -3.53201 8.26797 -5.32402 9.996 0l17.626 140.07h-42.956z" />
    <glyph glyph-name="uniE002" unicode="&#xe002;" 
d="M537.856 378.048c0 -16.064 -2.68799 -18.688 -18.688 -18.688h-65.088c-16 0 -18.688 2.62402 -18.688 18.688v111.424c0 21.44 32.064 25.024 63.296 35.712c32.064 11.584 63.296 29.44 63.296 77.568c0 41.024 -25.856 63.296 -74.048 63.296
c-55.232 0 -102.528 -29.44 -111.424 -29.44c-4.47998 0 -8.896 4.41602 -9.79199 8.96002l-23.232 60.608c-1.79199 3.58398 -1.79199 6.27197 -1.79199 9.85596c0 23.168 106.112 52.544 165.824 52.544c107.968 0 174.784 -69.504 174.784 -166.656
c0 -115.008 -91.904 -145.344 -144.512 -163.2v-60.672h0.0640259zM489.728 127.488c-42.816 0 -75.84 34.816 -75.84 74.944c0 42.816 33.024 75.776 75.84 75.776c41.92 0 74.816 -33.856 74.816 -75.776c0.0639648 -40.128 -33.792 -74.944 -74.816 -74.944zM512 940.288
c-271.936 0 -492.352 -220.352 -492.352 -492.288c0 -271.936 220.416 -492.288 492.352 -492.288c271.872 0 492.35 220.352 492.35 492.288c0 271.936 -220.478 492.288 -492.35 492.288zM512 27.648c-231.808 0 -420.352 188.544 -420.352 420.288
c0 231.808 188.608 420.352 420.352 420.352c231.744 0 420.352 -188.544 420.352 -420.352c0 -231.744 -188.608 -420.288 -420.352 -420.288z" />
    <glyph glyph-name="uniE003" unicode="&#xe003;" 
d="M858.752 794.752c-191.488 191.36 -502.016 191.36 -693.44 0c-191.552 -191.424 -191.552 -501.952 0 -693.44c191.488 -191.488 502.016 -191.424 693.44 0c191.488 191.36 191.488 502.016 0 693.44zM491.392 53.568c-53.312 0 -96.768 43.008 -96.768 95.808
c0 54.272 42.496 96.768 96.768 96.768c52.864 0 95.872 -43.392 95.872 -96.768c0 -51.968 -43.904 -95.808 -95.872 -95.808zM558.72 389.632v-53.12c0 -25.856 -10.112 -35.968 -35.968 -35.968h-69.376c-25.856 0 -35.968 10.112 -35.968 35.968v118.784
c0 29.952 30.784 38.912 57.92 46.848c6.59201 1.91998 13.44 3.96799 20.032 6.20798c35.264 12.672 57.024 28.416 57.024 67.648c0 12.736 0 51.456 -62.848 51.456c-38.784 0 -74.048 -14.848 -95.104 -23.808c-11.776 -4.992 -17.728 -7.48804 -23.68 -7.48804
c-12.096 0 -23.616 9.79205 -25.408 19.84l-24.064 63.04c-3.58398 7.16803 -3.58398 12.928 -3.58398 17.6c0 46.528 144.768 72.064 192.768 72.064c120.96 0 202.176 -77.824 202.176 -193.664c0 -125.376 -94.144 -164.672 -153.92 -185.408z" />
    <glyph glyph-name="uniE004" unicode="&#xe004;" 
d="M819.008 660.736v229.888h-128v-131.968l-180.864 142.72l-491.52 -377.536l92.416 -101.888l67.904 40.64v-467.968h704.064v467.968l51.648 -40.64l70.724 101.824zM627.008 58.624h-256.064v320h256.064v-320z" />
    <glyph glyph-name="uniE005" unicode="&#xe005;" 
d="M1006.66 523.776l-179.396 137.024v226.432h-128.256v-128.64l-187.008 142.784l-494.656 -377.536l77.76 -101.888l53.248 40.64v-467.968h727.232v467.968l53.184 -40.64zM804.352 65.856h-164.16v270.656h-256.384v-270.656h-164.16v442.048l292.352 223.232
l292.352 -223.232v-442.048z" />
    <glyph glyph-name="uniE006" unicode="&#xe006;" 
d="M419.52 288h-159.68c7.168 -23.488 12.16 -46.144 12.16 -64c0 -64 64 -192 128 -192s128 64 64 128c-23.744 23.872 -38.528 74.24 -44.48 128zM912 864c0 0 -165.504 -165.248 -342.784 -188.928c-0.384033 -0.960022 -105.216 -3.07202 -105.216 -3.07202h-320
c-70.656 0 -128 -71.68 -128 -160s57.344 -160 128 -160h320s104.832 -1.98401 105.216 -3.008c177.28 -23.744 342.784 -188.992 342.784 -188.992c128 192 128 512 0 704zM528 544h-442.624c5.312 0 13.248 64 58.624 64h384v-64zM656 544h-49.92h-14.08v64h26.624
c135.104 18.048 269.76 154.496 269.76 154.496c44.608 -66.944 23.616 -218.496 23.616 -218.496h-256z" />
    <glyph glyph-name="uniE007" unicode="&#xe007;" 
d="M666.496 960h-602.496v-1024h896v730.496zM832 64h-640v768h421.504l218.496 -218.496v-549.504zM256.064 550.272c0 -53.019 42.981 -96 96 -96c53.019 0 96 42.981 96 96c0 53.019 -42.981 96 -96 96c-53.019 0 -96 -42.981 -96 -96zM384 326.272l-128 -192h512
l-128 448l-128 -384z" />
    <glyph glyph-name="uniE008" unicode="&#xe008;" 
d="M666.496 960h-602.496v-1024h896v730.496zM832 64h-640v768h421.504l218.496 -218.496v-549.504zM256 379.264l192 -192v90.496l-101.504 101.504l101.504 101.504v90.432l-146.752 -146.688zM576 491.712l101.504 -101.504l-101.504 -101.44v-90.496l192 191.936
l-192 192v-90.496z" />
    <glyph glyph-name="uniE009" unicode="&#xe009;" 
d="M666.496 960h-602.496v-1024h896v730.496zM832 64h-640v768h421.504l218.496 -218.496v-549.504zM336.704 681.344l82.048 -175.168s0.191986 0.576019 0.255981 0.768005l78.976 -167.872c-11.776 1.79202 -24 2.944 -36.608 2.944
c-85.44 0 -154.688 -42.368 -154.688 -94.656c0 -52.288 69.248 -94.656 154.688 -94.656c85.376 0 154.624 42.368 154.624 94.656c0 9.15199 -149.76 336.96 -149.76 336.96c0.128021 0.127991 0.256012 0.255981 0.384003 0.383972
c80 29.312 149.376 -138.688 304.064 -40c-98.688 -32 -130.688 159.296 -433.984 136.64z" />
    <glyph glyph-name="uniE00A" unicode="&#xe00a;" 
d="M666.496 960h-602.496v-1024h896v730.496zM832 64h-640v768h421.504l218.496 -218.496v-549.504zM384 198.272l340.672 192l-340.672 192v-384z" />
    <glyph glyph-name="uniE00B" unicode="&#xe00b;" 
d="M666.496 960h-602.496v-1024h896v730.496zM832 64h-640v768h421.504l218.496 -218.496v-549.504zM256 384v-256h512v448h-512v-192zM512 512h192v-128h-192v128zM512 320h192v-128h-192v128zM320 512h128v-128h-128v128zM320 320h128v-128h-128v128z" />
    <glyph glyph-name="uniE00C" unicode="&#xe00c;" 
d="M0 928v-960h1024v960h-1024zM64 32v832h256v-832h-256zM960 32h-576v384h576v-384zM960 480h-576v384h576v-384z" />
    <glyph glyph-name="uniE00D" unicode="&#xe00d;" 
d="M666.496 960h-602.496v-1024h576v128h-448v768h421.504l218.496 -218.496v-229.504h128v282.496zM768 384c0 141.184 -114.88 256 -256 256c-141.184 0 -256 -114.816 -256 -256c0 -141.12 114.816 -256 256 -256c35.456 0 69.248 7.23199 99.968 20.352
l169.344 -169.344l135.744 135.744l-169.344 169.344c13.056 30.72 20.288 64.448 20.288 99.904zM384 384c0 70.656 57.344 128 128 128s128 -57.344 128 -128s-57.344 -128 -128 -128s-128 57.344 -128 128z" />
    <glyph glyph-name="uniE00E" unicode="&#xe00e;" 
d="M704 -15.488v-48.512h128v176l-127.744 -127.744zM128 832h357.504l182.976 -182.976l90.496 90.496l-220.48 220.48h-538.496v-1024h320v128h-192v768zM384 0h192l-192 192v-192zM448 256l384 383.936l192 -192l-384 -383.936z" />
    <glyph glyph-name="uniE00F" unicode="&#xe00f;" 
d="M666.496 960h-602.496v-1024h896v730.496zM832 64h-640v768h421.504l218.496 -218.496v-549.504zM448 435.52l-192 -192v-90.496l192 192l128 -128l192 192v90.496l-192 -192z" />
    <glyph glyph-name="uniE010" unicode="&#xe010;" 
d="M666.496 960h-602.496v-1024h896v730.496zM832 64h-640v768h421.504l218.496 -218.496v-549.504zM770.048 345.408c-10.176 10.112 -32.896 15.424 -67.52 15.808c-23.36 0.320007 -51.52 -1.728 -81.088 -5.888c-13.248 7.67999 -26.88 15.936 -37.632 25.92
c-28.8 27.008 -52.928 64.448 -67.904 105.536c0.960022 3.84 1.79199 7.23199 2.56 10.624c0 0 16.32 92.288 12.032 123.584c-0.639954 4.28802 -0.959961 5.50397 -2.17596 8.76801l-1.47198 3.58398c-4.41602 10.24 -13.056 21.056 -26.624 20.416l-7.936 0.320007
h-0.255981c-15.168 0 -27.52 -7.74402 -30.72 -19.264c-9.85602 -36.416 0.319977 -90.752 18.752 -161.088l-4.73599 -11.456c-13.184 -32.192 -29.76 -64.576 -44.288 -93.12l-1.92001 -3.71201c-15.296 -30.016 -29.248 -55.488 -41.792 -77.056l-13.12 -6.91202
c-0.960022 -0.511993 -23.296 -12.352 -28.544 -15.488c-44.416 -26.56 -73.856 -56.704 -78.72 -80.512c-1.53601 -7.744 -0.384003 -17.472 7.48801 -21.952l12.608 -6.40001c5.504 -2.752 11.2 -4.09599 17.088 -4.09599c31.744 0 68.48 39.424 119.04 127.68
c58.432 19.008 124.992 34.88 183.232 43.712c44.48 -25.152 99.136 -42.368 133.632 -42.368c6.20801 0 11.456 0.511993 15.744 1.60001c6.65601 1.79199 12.16 5.504 15.552 10.56c6.65601 10.24 8.06403 24 6.336 38.272
c-0.575989 4.224 -3.96802 9.40799 -7.61603 12.928zM297.344 177.024c5.82401 15.872 28.608 46.976 62.4 74.624c2.112 1.79201 7.36002 6.72002 12.096 11.264c-35.328 -56.384 -58.944 -78.848 -74.496 -85.888zM497.408 637.76c10.176 0 16 -25.664 16.448 -49.664
s-5.18402 -40.96 -12.16 -53.376c-5.76001 18.496 -8.57602 47.616 -8.57602 66.688c0 -0.0640259 -0.320007 36.352 4.28799 36.352zM437.696 309.44c7.10397 12.672 14.464 26.048 22.016 40.192c18.368 34.816 29.952 61.952 38.592 84.288
c17.216 -31.232 38.656 -57.856 63.744 -79.168c3.20001 -2.62402 6.40002 -5.31201 9.92004 -7.87201c-51.072 -10.176 -95.36 -22.464 -134.272 -37.44zM760.256 312.384c-3.19995 -1.98401 -12.032 -3.20001 -17.792 -3.20001c-18.496 0 -41.408 8.448 -73.6 22.272
c12.352 1.02402 23.68 1.47202 33.728 1.47202c18.688 0 24.192 0 42.368 -4.672c18.24 -4.608 18.368 -14.08 15.296 -15.872z" />
    <glyph glyph-name="uniE011" unicode="&#xe011;" 
d="M666.496 960h-602.496v-1024h896v730.496zM512 832v-64h64v-64h-64v-64h64v-64h-64v-64h64v-64h-64v-64h64v-64h-64v64h-64v64h64v64h-64v64h64v64h-64v64h64v64h-64v64h64zM320 64h-128v768h192v-512h-64v-256zM640 0h-256v256h256v-256zM832 64h-128v256h-64v485.504
l192 -192v-549.504zM448 192h128v-64h-128v64z" />
    <glyph glyph-name="uniE012" unicode="&#xe012;" 
d="M682.112 576h-101.376l-71.808 -105.792l-71.808 105.792h-101.504l121.6 -181.888l-137.216 -202.112h196.672v68.672h-45.376l37.568 56.256l83.648 -124.928h105.344l-137.344 202.112zM666.496 960h-602.496v-1024h896v730.496zM832 64h-640v768h421.504
l218.496 -218.496v-549.504z" />
    <glyph glyph-name="uniE013" unicode="&#xe013;" 
d="M666.496 960h-602.496v-1024h896v730.496zM832 64h-640v768h421.504l218.496 -218.496v-549.504zM607.936 474.432h33.28l-38.336 -169.792l-49.792 238.784h-80.064l-57.92 -238.784l-43.392 238.784h-83.712l84.928 -384.32h81.728l57.344 227.2l51.328 -227.2h75.392
l97.28 384.32h-128.064v-68.992z" />
    <glyph glyph-name="uniE014" unicode="&#xe014;" 
d="M666.496 960h-602.496v-1024h896v730.496zM832 64h-640v768h421.504l218.496 -218.496v-549.504zM633.984 556.032h-13.952c-13.376 0 -26.24 -3.45599 -38.528 -10.304c-12.288 -6.84802 -23.2321 -16.1281 -33.024 -27.776
c-9.79199 -11.648 -18.176 -23.488 -25.152 -35.456c-7.03998 -11.968 -13.568 -24.768 -19.712 -38.464h74.368c3.776 0 7.03998 -1.34402 9.85602 -4.09601c2.81598 -2.88 4.15997 -6.20801 4.15997 -9.92001v-56c0 -3.776 -1.34399 -7.03998 -4.09601 -9.85599
c-2.81598 -2.81601 -6.14398 -4.16 -9.91998 -4.16h-104.128c-2.62399 -5.504 -5.75998 -12.864 -9.40799 -21.888s-6.72 -16.832 -9.216 -23.168s-5.76001 -13.952 -9.85599 -22.592c-4.09601 -8.57599 -8 -16 -11.84 -22.272c-3.776 -6.336 -8.448 -13.12 -14.016 -20.608
c-5.504 -7.36 -11.328 -13.76 -17.28 -19.008s-13.12 -10.432 -21.44 -15.488c-8.31998 -5.12 -17.152 -9.28 -26.496 -12.48c-9.34399 -3.2 -19.968 -5.76001 -31.936 -7.616c-11.84 -1.92 -24.64 -2.88 -38.336 -2.88h-14.016c-3.776 0 -7.03998 1.34399 -9.85599 4.09599
c-2.81601 2.81601 -4.16 6.14401 -4.16 9.92001v56c0 3.776 1.34399 7.04001 4.16 9.85602c2.75198 2.75198 6.07999 4.09598 9.85599 4.09598h14.016c14.592 0 29.056 4.608 43.328 13.76c14.272 9.28 26.816 20.992 37.632 35.264s20.032 29.376 27.776 45.248
c7.67999 15.936 13.44 31.104 17.216 45.76c2.36798 9.60001 5.18399 19.712 8.57599 30.208s8.25601 23.296 14.656 38.528c6.39999 15.104 13.44 29.504 21.184 43.072c7.74402 13.568 17.28 27.392 28.672 41.536s23.552 26.24 36.544 36.288
c12.928 10.112 28.16 18.368 45.504 24.768c17.344 6.39996 35.648 9.59998 54.912 9.59998h14.016c3.776 0 7.04004 -1.34399 9.85602 -4.15997c2.75201 -2.75201 4.09601 -6.08002 4.09601 -9.85602v-56c0 -3.776 -1.34399 -7.04004 -4.09601 -9.85602
c-2.81598 -2.75201 -6.14398 -4.09601 -9.91998 -4.09601z" />
    <glyph glyph-name="uniE015" unicode="&#xe015;" 
d="M634.496 960h-538.496v-1024h832v730.496zM800 64h-576v768h357.504l26.496 -26.496v-165.504h165.504l26.496 -26.496v-549.504z" />
    <glyph glyph-name="uniE016" unicode="&#xe016;" 
d="M886.912 822.976c-96.192 96.256 -252.416 96.256 -348.736 0c-69.376 -69.44 -87.936 -169.792 -57.216 -256.64l-366.208 -366.208l-49.92 -149.504l149.568 -49.792l44.544 49.792l144.256 49.856v99.648l54.976 49.728l52.48 -49.728l100.928 99.648l-49.152 49.856
l67.648 67.392c86.912 -30.848 187.456 -12.288 256.896 57.152c96.32 96.256 96.32 252.48 -0.0640259 348.8zM768.832 624.832c-44.0959 0 -80 35.9041 -80 80c0 44.096 35.9041 80 80 80c44.096 0 80 -35.904 80 -80c0 -44.0959 -35.904 -80 -80 -80z" />
    <glyph glyph-name="uniE017" unicode="&#xe017;" 
d="M666.496 960h-602.496v-1024h896v730.496zM832 64h-640v768h421.504l218.496 -218.496v-549.504zM320 512h384v-64h-384v64zM320 640h256v-64h-256v64zM320 384h384v-64h-384v64zM320 256h384v-64h-384v64z" />
    <glyph glyph-name="uniE018" unicode="&#xe018;" 
d="M962.048 892.352c-17.472 16.256 -49.728 35.648 -104.256 35.648h-432c-148.672 0 -240 -111.808 -240 -192v-448c0 -14.144 -9.72801 -35.648 -23.616 -64h-8.38399c-83.968 0 -128 -64.384 -128 -128c0 -63.552 44.032 -128 128 -128h480
c114.432 0 128 316.864 128 320v384h96c86.656 0 140.352 70.592 140.352 135.936c0.0640259 32.896 -12.8 62.848 -36.096 84.416zM697.344 757.952c0.255981 -7.61603 0.512024 -14.912 0.512024 -21.952v-448c0 -84.608 -36.736 -242.88 -64.896 -256h-479.168
c-17.344 0 -29.312 5.632 -39.104 12.864c-16.96 12.672 -24.896 32.448 -24.896 51.136c0 23.488 11.392 49.344 39.424 59.264c7.29599 2.49599 14.912 4.73599 24.576 4.73599h416c17.664 0 32 14.4 32 32c0 17.728 -14.336 32 -32 32h-337.024
c10.432 23.616 17.088 43.648 17.088 64v448c0 43.456 62.144 128 176 128h285.504c-16.448 -33.408 -15.168 -72.96 -14.016 -106.048zM914.048 759.04c-9.91998 -10.496 -27.84 -23.04 -56.256 -23.04h-96c0 7.61603 -0.255981 15.744 -0.511963 24
c-1.15204 32.256 -2.30402 68.736 14.848 86.528c11.328 11.584 32.192 17.472 62.08 17.472h19.648c47.744 0 76.352 -20.928 76.352 -56.064c0 -17.6 -7.42401 -35.456 -20.16 -48.896z" />
    <glyph glyph-name="uniE019" unicode="&#xe019;" 
d="M1007.55 470.656l-472.958 472.832c-12.416 12.416 -32.832 12.416 -45.248 0l-472.832 -472.832c-12.416 -12.416 -12.416 -32.832 0 -45.248l472.896 -472.96c12.416 -12.416 32.832 -12.416 45.248 0l472.964 472.96c12.35 12.48 12.35 32.832 -0.0700073 45.248z
M569.856 217.856c0 -17.6 -14.464 -32 -32 -32h-64c-17.6 0 -32 14.4 -32 32v64c0 17.6 14.4 32 32 32h64c17.536 0 32 -14.4 32 -32v-64zM569.856 409.856c0 -17.6 -14.464 -32 -32 -32h-64c-17.6 0 -32 14.4 -32 32v256c0 17.6 14.4 32 32 32h64c17.536 0 32 -14.4 32 -32
v-256z" />
    <glyph glyph-name="uniE01A" unicode="&#xe01a;" 
d="M858.752 794.752c-191.488 191.36 -502.016 191.36 -693.44 0c-191.552 -191.424 -191.552 -501.952 0 -693.44c191.488 -191.488 502.016 -191.424 693.44 0c191.488 191.36 191.488 502.016 0 693.44zM477.312 768.704h101.632
c30.528 0 35.0081 -17.728 35.0081 -28.352c0 -4.28796 0 -4.28796 -0.256042 -9.27997l-0.703979 -10.624l-20.928 -372.288c-2.94403 -27.968 -15.296 -33.344 -35.84 -33.344h-54.144c-20.48 0 -32.96 5.44 -35.968 34.112l-20.864 371.456l-0.639984 10.688
c-0.384003 4.992 -0.384003 4.992 -0.384003 9.27997c0 10.624 4.35199 28.352 33.088 28.352zM529.6 53.568c-53.312 0 -96.768 43.008 -96.768 95.808c0 54.272 42.496 96.768 96.768 96.768c52.864 0 95.872 -43.392 95.872 -96.768
c-0.0639648 -51.968 -43.968 -95.808 -95.872 -95.808z" />
    <glyph glyph-name="uniE01B" unicode="&#xe01b;" 
d="M963.328 118.4l-134.656 254.656c-33.344 62.016 -88 163.392 -121.344 225.344l-134.656 250.048c-33.344 62.016 -88 62.016 -121.344 0l-134.656 -251.136c-33.344 -62.016 -88 -164.544 -121.344 -226.56l-134.656 -252.352
c-33.344 -62.016 -3.136 -117.248 67.392 -117.248h256h256h256c70.4 0 100.608 55.232 67.264 117.248zM576.064 129.152h-128v128h128v-128zM576.064 321.152h-128v256h128v-256z" />
    <glyph glyph-name="uniE01C" unicode="&#xe01c;" 
d="M992.256 71.872l-448.512 784.896c-17.472 30.592 -46.016 30.592 -63.488 0l-448.512 -784.896c-17.472 -30.528 -2.944 -55.552 32.256 -55.552h896c35.136 0 49.73 25.024 32.256 55.552zM576 176.32c0 -17.6 -14.4 -32 -32 -32h-64c-17.6 0 -32 14.4 -32 32v64
c0 17.6 14.4 32 32 32h64c17.6 0 32 -14.4 32 -32v-64zM576 368.32c0 -17.6 -14.4 -32 -32 -32h-64c-17.6 0 -32 14.4 -32 32v192c0 17.6 14.4 32 32 32h64c17.6 0 32 -14.4 32 -32v-192z" />
    <glyph glyph-name="uniE01D" unicode="&#xe01d;" 
d="M858.752 794.816c-191.488 191.36 -502.016 191.36 -693.44 0c-191.552 -191.424 -191.552 -502.016 0 -693.504c191.488 -191.488 502.016 -191.424 693.44 0c191.488 191.36 191.488 502.08 0 693.504zM504.064 853.632c51.776 0 93.888 -42.112 93.888 -93.952
c0 -52.224 -42.112 -94.784 -93.888 -94.784c-52.288 0 -94.848 42.56 -94.848 94.784c0.0639954 52.672 41.664 93.952 94.848 93.952zM654.976 163.008c0 -19.776 -9.53601 -29.312 -29.248 -29.312h-242.304c-19.712 0 -29.312 9.536 -29.312 29.312v61.76
c0 19.776 9.60001 29.312 29.312 29.312h44.8v260.608h-45.76c-19.712 0 -29.312 9.53601 -29.312 29.312v61.76c0 19.776 9.53598 29.312 29.312 29.312h169.152c19.712 0 29.248 -9.53601 29.248 -29.312v-351.68h44.864c19.712 0 29.248 -9.536 29.248 -29.312v-61.76z
" />
    <glyph glyph-name="uniE01E" unicode="&#xe01e;" 
d="M0 64h1024v640h-576l-112 128h-336v-768z" />
    <glyph glyph-name="uniE01F" unicode="&#xe01f;" 
d="M960 736h-576l-128 128h-192v-192h896v64zM0 608l128 -576h256v192h-128l256 256l256 -256h-128v-192h256l128 576h-1024z" />
    <glyph glyph-name="uniE020" unicode="&#xe020;" 
d="M448 736l-112 128h-336v-832h1024v704h-576zM320 160v192l192 -192h-192zM576 224l-192 192l256 256l192 -192z" />
    <glyph glyph-name="uniE021" unicode="&#xe021;" 
d="M0 485.12l107.776 -485.12h646.72l107.904 485.12h-862.4zM592.832 592.896h-269.504l-107.712 107.776h-161.728v-161.664h538.944v53.888zM847.552 896h-308.608v-592.832h485.056v403.2zM970.112 357.056h-377.28v485.056h215.68v-161.728h161.6v-323.328z" />
    <glyph glyph-name="uniE022" unicode="&#xe022;" 
d="M32 389.12l107.776 -485.12h646.72l107.904 485.12h-862.4zM560.896 496.896h-205.568l-107.712 107.776h-161.728v-161.664h475.008v53.888zM1024 672h-448c-17.728 0 -32 -14.4 -32 -32v-319.936c0 -17.6 14.272 -32 32 -32h448c17.73 0 32 14.4 32 32v319.936
c0 17.6 -14.27 32 -32 32zM960 608l-160 -128l-160 128h320zM992 352.064h-384v223.936l192 -159.936l192 159.936v-223.936z" />
    <glyph glyph-name="uniE023" unicode="&#xe023;" 
d="M544 512v128l-256 -192l256 -192v128h448v128h-448zM32 896h128v-896h-128v896z" />
    <glyph glyph-name="uniE024" unicode="&#xe024;" 
d="M480 512h-448v-128h448v-128l256 192l-256 192v-128zM864 896h128v-896h-128v896z" />
    <glyph glyph-name="uniE025" unicode="&#xe025;" 
d="M73.984 282.304l-22.4 -156.992l-22.272 -156.864l313.984 44.608l-134.592 134.656zM387.648 148.544l-44.8 44.864l403.776 403.904l-89.856 89.792l-403.84 -403.776l-44.928 44.864l403.968 403.84l-44.864 44.8l-448.704 -448.64l269.248 -269.248l448.576 448.704
l-44.736 44.864zM975.616 729.152l-179.52 179.52c-24.64 24.64 -64.256 25.344 -87.744 1.72803c-1.98401 -1.92004 -2.88 -4.41602 -4.47998 -6.52802l-1.02399 1.15198l-86.208 -86.208l269.248 -269.184l86.144 86.144l-1.15198 1.15198
c2.23999 1.53601 4.60797 2.30402 6.52802 4.224c23.742 23.68 22.852 63.296 -1.79199 88z" />
    <glyph glyph-name="uniE026" unicode="&#xe026;" 
d="M11.264 507.84l-3.136 -38.656c200.64 -405.12 741.632 -448.768 1004.61 -81.024l3.13 38.656c-200.766 405.12 -741.758 448.768 -1004.61 81.024zM493.248 216.192c-128.128 10.24 -223.36 122.496 -213.12 250.496c10.368 128.128 122.368 223.488 250.496 213.12
c128 -10.24 223.488 -122.368 213.248 -250.496c-10.368 -128 -122.624 -223.488 -250.624 -213.12zM395.648 448c0 -64.224 52.064 -116.288 116.288 -116.288c64.224 0 116.288 52.064 116.288 116.288v0c0 64.224 -52.064 116.288 -116.288 116.288
c-64.224 0 -116.288 -52.064 -116.288 -116.288v0z" />
    <glyph glyph-name="uniE027" unicode="&#xe027;" 
d="M528.64 654.08c27.776 -2.23999 53.696 -9.98401 77.056 -21.888l61.504 61.504c-102.528 36.864 -214.72 40.384 -319.872 9.47205l71.36 -71.36c32.896 16.768 70.4 25.472 109.952 22.272zM305.856 464.64c2.24002 27.776 9.98401 53.696 21.888 77.056
l-104.512 104.576c-58.368 -35.968 -112.192 -83.2 -156.48 -145.152l-2.752 -34.24c42.88 -86.528 103.424 -153.984 173.568 -202.752l90.624 90.624c-16.768 32.896 -25.536 70.4 -22.336 109.888zM957.248 394.88l2.75201 34.368
c-42.88 86.464 -103.424 153.856 -173.568 202.688l-90.624 -90.624c16.768 -32.96 25.472 -70.464 22.336 -109.952c-2.23999 -27.776 -9.98401 -53.76 -21.952 -77.12l104.576 -104.512c58.368 35.904 112.192 83.136 156.48 145.152zM495.36 241.856
c-27.776 2.23999 -53.696 9.98399 -77.056 21.888l-61.504 -61.504c102.528 -36.736 214.656 -40.384 319.872 -9.472l-71.36 71.488c-32.96 -16.768 -70.464 -25.536 -109.952 -22.4zM500.224 345.728c3.96799 -0.384003 7.80801 -1.08798 11.776 -1.08798
c3.96802 0 7.80798 0.767975 11.776 1.15198l-11.776 11.712zM614.208 436.224c0.447998 4.03201 1.15198 7.80801 1.15198 11.776s-0.703979 7.87201 -1.15198 11.776l-11.712 -11.776zM500.224 550.208l11.776 -11.776l11.776 11.776
c-3.96802 0.447998 -7.80798 1.15198 -11.776 1.15198c-3.96799 0 -7.80801 -0.703979 -11.776 -1.15198zM409.792 459.776c-0.447998 -3.90399 -1.15198 -7.80801 -1.15198 -11.776s0.767975 -7.74399 1.21597 -11.776l11.648 11.776zM919.232 764.736l-90.496 90.496
l-161.536 -161.536c41.792 -15.04 81.856 -35.776 119.232 -61.76zM104.768 131.264l90.496 -90.496l161.536 161.472c-41.792 15.104 -81.856 35.776 -119.232 61.888zM328.192 354.752l-90.624 -90.624c37.376 -26.112 77.44 -46.72 119.232 -61.888l61.504 61.504
c-39.168 20.032 -70.336 52.16 -90.112 91.008zM695.808 541.312l90.624 90.624c-37.376 25.984 -77.44 46.656 -119.232 61.76l-61.504 -61.504c39.168 -20.032 70.336 -52.16 90.112 -90.88zM602.496 448l11.712 11.776c-5.44 47.616 -42.816 84.992 -90.432 90.432
l-11.776 -11.776zM421.504 448l-11.712 -11.776c5.44 -47.616 42.816 -84.992 90.432 -90.496l11.776 11.776zM828.736 40.768l90.496 90.496l-118.528 118.528c-39.552 -24.384 -80.96 -44.224 -124.032 -57.024zM195.264 855.232l-90.496 -90.496l118.528 -118.528
c39.552 24.384 80.96 44.288 124.032 56.96zM418.688 631.808l-71.36 71.36c-43.136 -12.608 -84.48 -32.576 -124.032 -56.96l104.512 -104.576c19.968 39.296 52.096 70.4 90.88 90.176zM605.312 264.256l71.36 -71.488c43.136 12.736 84.48 32.64 124.032 57.024
l-104.576 104.512c-19.904 -39.168 -52.096 -70.272 -90.816 -90.048zM512 357.504l11.776 -11.776c47.616 5.504 84.992 42.88 90.432 90.496l-11.712 11.776zM512 538.432l-11.776 11.776c-47.616 -5.44 -84.992 -42.816 -90.432 -90.432l11.712 -11.776zM602.496 448
l-90.496 -90.496l-90.496 90.432l90.496 90.496z" />
    <glyph glyph-name="uniE028" unicode="&#xe028;" 
d="M352 576h128v-128h-128v128zM544 576h128v-128h-128v128zM736 576h128v-128h-128v128zM160 384h128v-128h-128v128zM352 384h128v-128h-128v128zM544 384h128v-128h-128v128zM736 384h128v-128h-128v128zM160 192h128v-128h-128v128zM352 192h128v-128h-128v128zM544 192
h128v-128h-128v128zM864 832v128h-192v-128h-320v128h-192v-128h-128v-896h960v896h-128zM736 896h64v-128h-64v128zM224 896h64v-128h-64v128zM928 0h-832v640h832v-640z" />
    <glyph glyph-name="uniE029" unicode="&#xe029;" 
d="M275.648 399.424h147.328s2.43198 29.312 -5.56802 41.728c-8.896 13.76 -38.656 22.464 -68.096 34.688c-29.44 12.288 -36.416 16.64 -36.416 16.64l-0.255981 28.16s11.008 8.57599 14.464 35.136c6.84799 -1.98401 14.208 10.304 14.592 16.832
c0.383972 6.27203 -1.02402 23.424 -9.34402 21.76c1.664 13.12 3.008 24.768 2.30402 31.04c-2.30402 22.656 -24.64 46.592 -59.008 46.592c-34.368 0 -56.768 -23.936 -58.88 -46.656c-0.639999 -6.336 0.639999 -17.92 2.304 -31.04
c-8.384 1.664 -9.72801 -15.488 -9.34401 -21.76c0.447998 -6.52802 7.68001 -18.816 14.592 -16.832c3.32799 -26.496 14.4 -35.072 14.4 -35.072l-0.320007 -28.16s-6.91199 -4.28802 -36.416 -16.64c-29.504 -12.224 -59.264 -20.928 -68.096 -34.624
c-7.936 -12.48 -5.504 -41.792 -5.504 -41.792h147.264zM512 672h256v-64h-256v64zM512 544h384v-64h-384v64zM512 416h320v-64h-320v64zM0 800v-704h1024v704h-1024zM960 160h-133.888c3.58398 10.048 5.888 20.736 5.888 32c0 53.056 -43.008 96 -96 96
s-96 -42.944 -96 -96c0 -11.264 2.30402 -21.952 5.888 -32h-267.776c3.58401 10.048 5.888 20.736 5.888 32c0 53.056 -43.008 96 -96 96s-96 -42.944 -96 -96c0 -11.264 2.304 -21.952 5.888 -32h-133.888v576h896v-576z" />
    <glyph glyph-name="uniE02A" unicode="&#xe02a;" 
d="M527.616 361.856c-70.272 29.248 -86.848 39.488 -86.848 39.488l-0.70401 67.328s26.304 20.224 34.56 83.648c16.384 -4.73602 33.664 24.576 34.624 40c0.896027 14.784 -2.30399 56.128 -22.4 51.968c4.09601 31.168 7.04001 59.072 5.63202 73.92
c-5.18402 54.08 -58.496 111.168 -140.48 111.168c-81.856 0 -135.232 -57.088 -140.48 -111.168c-1.408 -14.848 1.536 -42.752 5.696 -73.92c-20.096 4.09595 -23.296 -37.184 -22.4 -51.968c0.960007 -15.424 18.176 -44.736 34.688 -40
c8.12801 -63.36 34.496 -83.648 34.496 -83.648l-0.70401 -67.328s-16.704 -10.176 -86.784 -39.424c-70.4 -29.248 -141.312 -49.728 -162.368 -82.688c-19.008 -29.44 -13.312 -212.544 -13.312 -212.544h702.4s5.63202 183.104 -13.312 212.544
c-21.056 32.896 -92.032 53.376 -162.304 82.624zM1011.33 257.6c-18.946 29.504 -18.69 47.936 -81.794 74.24c-63.104 26.304 -78.144 35.52 -78.144 35.52l-0.512024 60.416s23.616 18.176 30.976 75.2c14.72 -4.28802 30.272 22.08 31.104 35.904
c0.768005 13.376 -2.04803 50.432 -20.096 46.72c3.64801 27.968 6.39996 53.056 5.12 66.368c-4.672 48.64 -52.608 99.904 -126.272 99.904s-121.472 -51.264 -126.272 -99.904c-1.28003 -13.312 1.34399 -38.464 5.12 -66.368
c-18.048 3.71204 -20.928 -33.344 -20.032 -46.72c0.895996 -13.824 16.384 -40.192 31.104 -35.904c7.35999 -57.024 31.04 -75.2 31.04 -75.2l-20.8 -16.256c59.072 -28.032 123.584 -67.584 123.584 -107.2v-237.76h227.844
c-0.0700073 0.064003 5.04999 164.544 -11.97 191.04z" />
    <glyph glyph-name="uniE02B" unicode="&#xe02b;" 
d="M990.336 179.904c-29.888 46.656 -130.304 75.648 -229.76 116.992c-99.392 41.472 -123.008 55.872 -123.008 55.872l-0.895996 95.36s37.248 28.608 48.768 118.4c23.296 -6.72003 47.744 34.752 49.152 56.64c1.28003 21.056 -3.26398 79.488 -31.616 73.6
c5.76001 44.032 9.98401 83.584 7.93597 104.512c-7.48798 76.5439 -82.88 157.376 -198.912 157.376c-115.968 0 -191.424 -80.832 -198.784 -157.44c-2.112 -20.928 2.112 -60.48 7.936 -104.512c-28.416 5.888 -32.96 -52.544 -31.616 -73.6
c1.34399 -21.888 25.728 -63.36 49.088 -56.64c11.584 -89.728 48.832 -118.4 48.832 -118.4l-0.959991 -95.36s-23.552 -14.4 -123.008 -55.872c-99.456 -41.344 -199.872 -70.4 -229.76 -116.992c-26.816 -41.728 -18.752 -242.496 -18.752 -242.496h994.114
s8.12994 200.768 -18.754 242.56z" />
    <glyph glyph-name="uniE02C" unicode="&#xe02c;" 
d="M535.104 193.344c-71.168 29.696 -88.064 40 -88.064 40l-0.70401 68.224s26.688 20.48 34.944 84.736c16.704 -4.79999 34.176 24.896 35.136 40.576c0.895996 15.104 -2.30402 56.96 -22.656 52.736c4.16 31.488 7.104 59.84 5.63199 74.816
c-5.24799 54.848 -59.2 112.64 -142.208 112.64s-137.024 -57.792 -142.336 -112.64c-1.53601 -15.04 1.472 -43.328 5.63199 -74.816c-20.352 4.224 -23.552 -37.632 -22.72 -52.736c1.08801 -15.68 18.432 -45.376 35.2 -40.512
c8.256 -64.256 35.008 -84.736 35.008 -84.736l-0.767975 -68.224s-16.896 -10.304 -88 -40c-71.168 -29.632 -143.104 -50.368 -164.48 -83.776c-19.2 -29.888 -13.44 -173.632 -13.44 -173.632h711.68s5.75995 143.744 -13.376 173.632
c-21.44 33.344 -93.376 54.144 -164.48 83.712zM384.448 960v-192h64v128h511.04v-319.68l-62.08 1.02399l-21.76 0.255981l-17.536 -12.992l-154.624 -115.584v128.768l-127.04 -0.960022v-64l63.04 0.512024v-192l256.96 192l127.042 -1.98401v448.64h-639.042z" />
    <glyph glyph-name="uniE02D" unicode="&#xe02d;" 
d="M882.176 257.344v128h-128v-128h-128v-128h128v-128h128v128h128.004v128h-128.004zM525.824 65.344v256h64v64h47.488l-0.640015 62.72s37.248 28.608 48.768 118.4c23.36 -6.71997 47.744 34.752 49.152 56.64c1.28003 21.056 -3.26398 79.488 -31.616 73.6
c5.76001 44.032 9.98401 83.584 8 104.512c-7.48804 76.608 -82.88 157.44 -198.848 157.44c-115.968 0 -191.488 -80.832 -198.848 -157.44c-2.112 -20.928 2.112 -60.48 7.87201 -104.512c-28.416 5.888 -32.896 -52.544 -31.616 -73.6
c1.34399 -21.888 25.728 -63.36 49.088 -56.64c11.52 -89.728 48.832 -118.4 48.832 -118.4l-0.959991 -95.36s-23.616 -14.4 -123.008 -55.872c-99.456 -41.344 -199.872 -70.4 -229.76 -116.992c-26.816 -41.728 -18.752 -242.496 -18.752 -242.496h638.848v128h-128z" />
    <glyph glyph-name="uniE02E" unicode="&#xe02e;" 
d="M525.824 65.344v256l134.144 0.640015l-11.968 21.568l-10.688 41.792l-0.640015 62.72s37.248 28.608 48.768 118.4c23.36 -6.71997 47.744 34.752 49.152 56.64c1.28003 21.056 -3.26398 79.488 -31.616 73.6c5.76001 44.032 9.98401 83.584 8 104.512
c-7.48804 76.608 -82.88 157.44 -198.848 157.44c-115.968 0 -191.488 -80.832 -198.848 -157.44c-2.112 -20.928 2.112 -60.48 7.87201 -104.512c-28.416 5.888 -32.896 -52.544 -31.616 -73.6c1.34399 -21.888 25.728 -63.36 49.088 -56.64
c11.52 -89.728 48.832 -118.4 48.832 -118.4l-0.959991 -95.36s-23.616 -14.4 -123.008 -55.872c-99.456 -41.344 -199.872 -70.4 -229.76 -116.992c-26.816 -41.728 -18.752 -242.496 -18.752 -242.496h638.848v128h-128zM1024 187.392l-224 196.608v-132.608
l-224 -0.0639954v-128l224 0.0639954v-128z" />
    <glyph glyph-name="uniE02F" unicode="&#xe02f;" 
d="M0 960v-768h256v-256l359.936 256h408.064v768h-1024zM896 320h-256l-256 -192v192h-256v512h768v-512zM192 576c0 -35.346 28.654 -64 64 -64c35.346 0 64 28.654 64 64s-28.654 64 -64 64c-35.346 0 -64 -28.654 -64 -64zM448 576c0 -35.346 28.654 -64 64 -64
s64 28.654 64 64s-28.654 64 -64 64s-64 -28.654 -64 -64zM704 576c0 -35.346 28.654 -64 64 -64s64 28.654 64 64s-28.654 64 -64 64s-64 -28.654 -64 -64z" />
    <glyph glyph-name="uniE030" unicode="&#xe030;" 
d="M0 960v-320h192v-192l192 192h640v320h-1024zM128 256v192h-128v-320h640l192 -192v192h192v320h-704z" />
    <glyph glyph-name="uniE031" unicode="&#xe031;" 
d="M512.128 362.752l456.896 403.456c-3.07196 0.447998 -5.82397 1.79199 -9.02399 1.79199h-896c-1.984 0 -3.648 -0.960022 -5.568 -1.15198zM1024 704c0 7.61603 -1.85999 14.656 -4.34998 21.44l-322.626 -284.864l318.526 -278.656
c4.87 9.088 8.45001 19.008 8.45001 30.08v512zM4.992 728.768c-3.2 -7.61603 -4.992 -16 -4.992 -24.768v-512c0 -9.34399 2.24 -18.048 5.824 -26.048l321.536 275.648zM648.64 397.952l-136.768 -120.704l-136.32 121.408l-314.944 -269.952
c1.152 -0.0639954 2.176 -0.703995 3.392 -0.703995h893.12z" />
    <glyph glyph-name="uniE032" unicode="&#xe032;" 
d="M512.128 594.752l285.504 252.096c-1.92004 0.383972 -3.58405 1.15198 -5.63202 1.15198h-560c-1.216 0 -2.368 -0.575989 -3.52 -0.768005zM832 808c0 4.86401 -1.15198 9.28003 -2.75201 13.376l-201.6 -177.92l199.104 -174.336
c3.008 5.76001 5.24799 11.968 5.24799 18.88v320zM195.136 823.488c-1.98401 -4.73596 -3.136 -9.98395 -3.136 -15.488v-320c0 -5.888 1.34399 -11.328 3.64799 -16.32l200.896 172.352zM597.248 616.704l-85.376 -75.456l-85.12 76.032l-196.864 -168.832
c0.768005 -0.0639954 1.34399 -0.447998 2.112 -0.447998h558.272zM887.488 640h-183.488l64 -64h77.184l81.92 -192h-223.104c0 -106.048 -85.952 -192 -192 -192c-106.048 0 -192 85.952 -192 192h-223.104l81.92 192h77.184l64 64h-183.488l-136.512 -320v-384h1024v384z
" />
    <glyph glyph-name="uniE033" unicode="&#xe033;" 
d="M938.56 541.376h-133.76c-7.93597 25.6 -19.136 49.856 -32.704 72.32l88.64 88.896c20.928 20.672 20.928 54.528 0 75.392l-37.632 37.568c-20.864 20.8 -54.656 20.672 -75.392 0l-90.24 -90.112c-24.32 14.016 -50.816 24.704 -78.912 31.936v117.248
c0 29.376 -23.744 53.376 -53.248 53.376h-53.312c-29.376 0 -53.312 -24 -53.312 -53.376v-117.184c-30.656 -7.74402 -59.392 -19.968 -85.76 -35.968l-75.456 75.392c-20.8 20.672 -54.656 20.8 -75.456 0l-37.824 -37.632c-20.8 -20.8 -20.544 -54.72 0.128006 -75.584
l76.864 -76.864c-16.192 -28.352 -28.416 -59.264 -35.392 -92.096h-100.352c-29.504 0 -53.44 -23.872 -53.44 -53.376v-53.312c0 -29.376 23.936 -53.184 53.44 -53.184h107.2c9.664 -32.256 24.384 -61.888 43.136 -88.768l-72.512 -72.512
c-20.864 -20.992 -20.864 -54.848 -0.128006 -75.648l37.632 -37.632c20.928 -20.736 54.784 -20.736 75.52 0.128006l81.024 80.896c27.264 -13.504 56.896 -23.36 88 -28.352v-111.488c0 -29.504 23.872 -53.376 53.312 -53.504h53.312
c29.376 0.127998 53.248 24 53.248 53.504v125.248c26.88 9.472 52.352 22.272 75.456 38.4l85.824 -85.888c20.864 -20.864 54.592 -20.864 75.52 0l37.632 37.632c20.9919 20.864 20.9919 54.656 -0.128052 75.52l-94.08 94.272c11.584 23.36 20.544 48.384 26.048 74.752
h127.04c29.5681 0 53.312 23.808 53.44 53.376v53.248c-0.0639648 29.376 -23.808 53.376 -53.376 53.376zM498.688 314.752c-73.6 0 -133.312 59.52 -133.312 133.312c0 73.664 59.712 133.248 133.312 133.248c73.664 0 133.376 -59.52 133.376 -133.248
c0.0639648 -73.792 -59.712 -133.312 -133.376 -133.312z" />
    <glyph glyph-name="uniE034" unicode="&#xe034;" 
d="M664.832 356.48h-98.112c-5.82397 18.752 -14.016 36.544 -24 53.056l65.024 65.216c15.36 15.168 15.36 40 0 55.296l-27.648 27.52c-15.296 15.232 -40 15.168 -55.296 0l-66.112 -66.048c-17.856 10.24 -37.248 18.048 -57.856 23.36v85.952
c0 21.5681 -17.408 39.104 -39.04 39.104h-39.104c-21.504 0 -39.04 -17.5359 -39.04 -39.104v-85.952c-22.528 -5.63202 -43.584 -14.656 -62.976 -26.432l-55.36 55.36c-15.232 15.168 -40.128 15.232 -55.36 0l-27.712 -27.648
c-15.232 -15.168 -15.04 -40.064 0.127998 -55.36l56.384 -56.384c-11.904 -20.8 -20.864 -43.456 -25.92 -67.52h-73.6c-21.696 0 -39.232 -17.536 -39.232 -39.168v-39.104c0 -21.504 17.536 -38.976 39.168 -38.976h78.592c7.104 -23.616 17.856 -45.312 31.616 -65.088
l-53.184 -53.184c-15.296 -15.36 -15.296 -40.128 -0.127998 -55.36l27.648 -27.648c15.36 -15.168 40.128 -15.168 55.424 0.0639992l59.392 59.328c19.968 -9.856 41.728 -17.152 64.576 -20.8v-81.728c0 -21.632 17.472 -39.168 39.04 -39.168h39.168
c21.504 0 39.04 17.536 39.04 39.168v91.84c19.712 6.976 38.4 16.384 55.296 28.224l62.976 -63.04c15.296 -15.232 40 -15.232 55.36 0l27.648 27.712c15.36 15.232 15.36 40 -0.127991 55.296l-68.992 69.056c8.448 17.28 15.04 35.52 19.136 54.848h93.184
c21.696 0 39.168 17.344 39.168 39.104v39.104c0 21.504 -17.472 39.104 -39.168 39.104zM342.272 190.272c-53.952 0 -97.728 43.648 -97.728 97.728c0 54.016 43.776 97.664 97.728 97.664c54.016 0 97.792 -43.712 97.792 -97.664
c0 -54.144 -43.776 -97.728 -97.792 -97.728zM999.04 779.648h-62.464c-3.776 11.968 -8.896 23.232 -15.232 33.728l41.344 41.472c9.72803 9.664 9.72803 25.408 0 35.136l-17.6 17.536c-9.664 9.72797 -25.408 9.664 -35.136 0l-42.112 -42.048
c-11.392 6.52802 -23.6801 11.52 -36.8 14.848v54.784c0 13.696 -11.072 24.896 -24.832 24.896h-24.832c-13.7599 0 -24.896 -11.2 -24.896 -24.896v-54.656c-14.336 -3.58398 -27.776 -9.34399 -40.064 -16.768l-35.2 35.2c-9.72803 9.664 -25.472 9.72797 -35.264 0
l-17.6 -17.6c-9.72797 -9.664 -9.59998 -25.472 0.0640259 -35.264l35.904 -35.904c-7.552 -13.248 -13.312 -27.648 -16.576 -42.944h-46.784c-13.824 0 -24.96 -11.136 -24.96 -24.8961v-24.896c0 -13.696 11.136 -24.832 24.96 -24.832h50.048
c4.47998 -15.04 11.392 -28.864 20.096 -41.408l-33.856 -33.792c-9.72797 -9.79199 -9.72797 -25.6 -0.0639648 -35.264l17.5359 -17.6c9.72803 -9.664 25.536 -9.664 35.264 0l37.824 37.76c12.672 -6.27197 26.56 -10.88 41.088 -13.248v-52.032
c0 -13.76 11.136 -24.896 24.896 -24.96h24.896c13.76 0 24.896 11.2 24.896 24.96v58.496c12.544 4.41602 24.512 10.368 35.264 17.92l40 -40.064c9.72797 -9.72803 25.472 -9.72803 35.264 0l17.536 17.6c9.79199 9.664 9.79199 25.408 -0.0640259 35.2l-43.968 43.968
c5.37598 10.944 9.53595 22.592 12.0959 34.88h59.328c13.82 0 24.9 11.072 24.96 24.896v24.832c-0.0599976 13.76 -11.14 24.96 -24.96 24.96zM793.792 673.856c-34.304 0 -62.208 27.776 -62.208 62.208c0 34.368 27.904 62.144 62.208 62.144
c34.368 0 62.208 -27.776 62.208 -62.144c0 -34.432 -27.84 -62.208 -62.208 -62.208z" />
    <glyph glyph-name="uniE035" unicode="&#xe035;" 
d="M0 64h1024v-64h-1024v64zM0 704h256v-576h-256v576zM384 448h256v-320h-256v320zM768 896h256v-768h-256v768z" />
    <glyph glyph-name="uniE036" unicode="&#xe036;" 
d="M32 864v-832h960v832h-960zM864 160h-704v576h704v-576zM208.768 323.904c15.488 -8.384 34.944 -2.62399 43.328 12.864l49.024 90.496l121.856 -120.512l125.952 127.36l131.328 -137.088l148.352 296.64c7.87201 15.808 1.47205 35.008 -14.4 42.944
c-15.744 7.80804 -35.008 1.53601 -42.88 -14.336l-107.776 -215.36l-113.92 118.912l-127.168 -128.64l-136.96 135.552l-89.6 -165.504c-8.51201 -15.488 -2.688 -35.008 12.864 -43.328z" />
    <glyph glyph-name="uniE037" unicode="&#xe037;" 
d="M512 928c-265.024 0 -480 -214.976 -480 -480s214.976 -480 480 -480s480 214.976 480 480s-214.976 480 -480 480zM643.136 198.016c0 0 0.0640259 -0.0640106 0.127991 -0.0640106c2.88 0.384003 3.52002 -0.0639954 5.69604 3.64801
c0 -5.82401 1.27997 -11.328 3.64795 -16.64c-6.65594 26.368 20.096 27.2 32.256 42.816c4.60797 6.08 12.096 22.72 17.984 25.28c3.13599 -4.608 3.83997 -9.728 2.112 -15.04c1.34399 3.84 0.191956 0.255997 -0.256042 -1.08801
c-0.127991 -5.312 -1.08795 -10.368 -3.39197 -15.104c-0.960022 0.895996 -1.40802 1.92 -1.60004 3.2c-21.248 -17.28 -20.992 -66.176 -49.856 -78.4c-15.488 -6.528 -13.568 14.464 -7.74402 21.824c8.64001 11.008 -3.20001 18.176 2.17603 28.992
c-0.384033 0 -0.704041 0.511993 -1.02405 0.576004c-0.0639648 -0.0640106 -0.127991 -0.0640106 -0.127991 -0.0640106v0.0640106c-5.24799 1.28 -10.304 14.336 -10.304 21.76c6.20801 1.15199 9.34406 4.864 9.85602 2.62399
c1.53601 1.92001 8.76801 14.656 8.83203 16.576c1.91998 -11.008 -13.888 -32.32 -8.38403 -40.96zM859.008 504.768c-8 15.36 -15.04 33.28 -20.864 42.368c-10.24 16.256 -16.768 42.24 -31.616 54.656c3.51996 -4.28796 3.96796 -8.896 1.15198 -13.632
c-7.74402 2.30402 -14.08 6.72003 -18.624 13.632c-0.768005 3.13599 7.93597 -4.224 3.13599 5.12c-12.288 -1.59998 -21.12 11.072 -31.168 18.112c-17.664 2.30402 -36.928 -12.608 -54.976 -2.04797c-4.28796 2.43201 -8.31995 17.024 -14.848 8.57599
c-3.45599 -4.41602 -7.104 -4.41602 -12.224 -2.94403c-20.16 6.14404 -28.928 23.424 -47.168 23.936c0.192017 -7.74402 13.184 -19.2 19.392 -22.72c8.12799 -4.672 13.824 -25.088 14.784 -6.84796c11.648 -6.65601 3.39197 -21.568 19.904 -16.064
c12.544 -4.86401 9.216 15.232 11.84 21.248c3.96796 -2.36798 6.14398 -12.0959 9.34399 -15.232c6.59198 -6.14398 15.936 -3.776 22.016 -10.048c7.67999 -8 12.032 -19.52 10.176 -29.12c-7.16797 0.575989 -1.47198 -8.64001 -6.01599 -15.68
c-4.86401 -7.36005 -4.41602 -9.02399 -7.48798 -17.024c-8.51202 -2.11206 -18.56 -6.01605 -17.024 -17.152c-5.95203 -7.104 -58.944 -45.504 -65.92 -35.008c-8.63995 12.992 -10.752 31.04 -17.728 44.8c-10.368 3.45599 -32 29.824 -36.224 40
c3.20001 17.92 -44.16 53.184 -51.904 53.44c5.63196 -24.384 26.624 -37.248 36.288 -56.064c8.19202 -16.1281 23.232 -54.016 35.84 -59.2c20.928 1.98401 33.792 -35.968 44.992 -43.904c14.592 -10.112 44.416 22.72 57.216 19.52
c1.40796 -17.28 1.15198 -22.464 -4.09601 -41.472c-10.624 -38.976 -28.544 -55.872 -51.648 -87.488c-13.312 -18.176 -21.952 -30.976 -31.936 -51.008c-7.80804 -15.808 15.04 -48.896 8.83197 -57.664c3.39203 -25.792 -2.94397 -40.96 -25.28 -53.824
c-16.32 -9.472 -30.4 -18.496 -24.8961 -36.352c5.56805 -17.856 -16.704 -20.672 -19.328 -30.72c-6.784 -16.64 -16.3199 -25.472 -27.7759 -31.744c-7.74402 -0.576004 -15.36 -1.216 -23.168 -1.216c-14.016 0 -27.776 1.088 -41.408 2.624
c-18.048 22.656 -36.864 46.656 -56.192 69.248c-11.84 13.504 -27.776 38.144 -10.496 55.488c1.92001 11.264 -11.584 37.248 -17.536 47.168c-10.048 16.832 -56.512 53.184 -38.4 72.704c2.496 12.864 -8.832 25.664 -8.832 35.84
c-9.85599 7.936 -19.968 -10.624 -29.568 6.20801c-10.24 17.984 -28.864 13.056 -44.288 1.98401c-3.45599 -2.36801 -46.336 -8.76801 -50.176 -5.37601c-32.64 29.12 -43.008 74.816 -31.68 113.984c4.608 16.256 5.18401 45.12 18.112 56
c4.224 16.896 23.744 33.472 34.112 47.36c5.56801 7.42401 14.528 8.12799 20.992 15.744c9.66397 11.392 14.4 24.896 26.88 34.944c12.608 10.048 39.68 27.072 16.64 30.72c9.15201 13.376 23.68 28.032 29.056 44.032c7.936 6.336 22.656 3.71198 31.488 8.06403
c7.67999 15.616 10.816 15.168 7.936 25.152c1.53598 6.40002 21.824 11.264 26.112 12.864c8 3.13599 15.104 10.496 22.4 15.872c30.208 8.51196 61.952 13.376 94.848 13.376c174.72 0 319.744 -128.128 347.008 -295.232zM523.264 739.264
c-0.0639648 -6.336 22.528 -5.37598 25.92 -6.27197c-6.08002 1.47198 2.04797 1.27997 0 0c20.544 12.736 -42.304 24.96 -43.072 25.408c1.664 0.768005 2.81601 1.91998 3.20001 3.64795c-11.264 -4.15997 -3.96802 8.06403 -14.528 -4.15997
c2.75201 -9.34399 -9.47198 -15.488 -4.16 -25.408c10.944 -9.216 21.888 4.992 32.64 6.784zM440.32 714.816c-11.136 6.336 -3.13602 -2.49597 -9.85602 -9.98401c-9.79199 -11.2 -8.95999 -14.912 -23.936 -9.21594c-0.640015 12.416 28.16 1.34399 14.976 24.128
c-6.59201 11.264 -12.864 24.64 -25.344 16.384c-11.712 -7.74402 -32.896 -12.224 -42.048 -29.12c-5.37601 -5.63202 -43.2 -34.816 -43.072 -37.376c14.656 -11.904 72.192 35.136 86.656 21.312c-0.960022 -9.72797 -12.224 -17.152 -12.416 -26.944
c4.28799 -1.79199 5.37601 -6.01599 10.368 -6.71997c19.072 4.09595 13.952 -9.02405 28.032 -12.416c23.488 -5.82404 5.56799 -1.40802 20.352 13.248c4.86398 4.672 30.784 4.15997 32 -3.96802c-0.768005 5.05603 10.88 1.98401 0 0
c11.584 2.112 22.656 -9.47198 31.232 -0.895996c6.07999 6.01599 11.136 4.79999 15.68 1.40802c20.928 -15.104 13.888 43.84 14.4641 46.656c-7.29602 -4.672 -49.216 -9.08801 -48.896 -4.672c0.768005 5.12 -5.37601 5.50397 -7.74399 12.032
c8.19199 9.72803 -7.168 4.79999 1.02399 15.424c-4.09598 2.112 -8.32001 2.112 -12.416 0c-1.728 -6.97601 3.45599 -4.47998 -5.82401 -2.56c-3.07199 -7.552 7.168 -12.672 5.82401 -19.648c-1.28 0.960022 -2.68802 1.53601 -4.16 1.47198
c-1.34399 -5.05597 -0.384003 -3.83997 -0.511993 -11.84c-14.272 2.62396 -6.52802 13.44 -18.688 28.992c11.072 8.83197 -22.976 26.112 -18.112 31.616c-24 -6.46399 19.008 -31.552 12.416 -37.312zM396.16 705.408
c-2.36801 -0.960022 -4.80002 -1.47205 -7.29599 -1.47205c1.91998 6.08002 10.752 27.712 16.128 28.544c-0.384003 -7.80798 -7.48801 -19.008 -8.832 -27.072zM396.16 705.408c1.02399 6.07996 -3.71201 0.703979 0 0v0zM600.64 731.968
c-5.69604 -2.23999 1.40796 -19.392 10.368 -18.688c6.336 -5.37604 13.44 -6.40002 21.248 -3.13605c-2.04797 14.528 -38.528 43.136 -50.368 49.344c1.72803 1.664 2.43201 6.84802 6.27197 6.27203c-3.51996 15.616 -19.712 3.008 -19.712 -6.91199
c6.08002 -7.29602 30.592 -20.096 32.192 -26.88zM611.008 713.28c-6.91199 -0.512024 4.28802 -4.80005 0 0v0zM629.12 757.376c-5.82397 1.28003 -11.968 14.272 -18.112 16.1281c-0.703979 -3.328 -0.447998 -2.94403 -1.02399 -5.24805
c0.447998 1.72803 2.68799 -4.28796 0 0c2.23999 -3.776 12.416 -18.048 19.136 -10.88zM366.016 736.64c-1.216 -1.98401 -3.26398 -2.88 -5.24799 -3.90399c-0.192017 -0.320007 -0.256012 -0.512024 -0.447998 -0.768005
c1.91998 -0.832031 4.03198 5.31201 5.69598 4.672z" />
    <glyph glyph-name="uniE038" unicode="&#xe038;" 
d="M832 640v320h-832v-768h192v-256h832v704h-192zM192 320h-64v512h576v-192h-512v-320zM896 64h-576v448h576v-448zM384 192h448v-64h-448v64zM384 320h192v-64h-192v64zM384 448h192v-64h-192v64zM192 768h448v-64h-448v64zM640 448h192v-192h-192v192z" />
    <glyph glyph-name="uniE039" unicode="&#xe039;" 
d="M693.44 448.064l-266.944 155.776v-311.552l133.44 77.952zM0 64h1024v768h-1024v-768zM300.992 659.008c116.48 116.416 305.408 116.416 422.016 0c116.48 -116.48 116.48 -305.536 0 -421.952c-116.48 -116.48 -305.472 -116.544 -422.016 0
c-116.544 116.544 -116.544 305.536 0 421.952zM0 0h64v-64h-64v64zM896 0h128v-64h-128v64zM128 0h128v-64h-128v64zM320 0h128v-64h-128v64zM512 0h128v-64h-128v64zM704 0h128v-64h-128v64zM0 960h64v-64h-64v64zM896 960h128v-64h-128v64zM128 960h128v-64h-128v64z
M320 960h128v-64h-128v64zM512 960h128v-64h-128v64zM704 960h128v-64h-128v64z" />
    <glyph glyph-name="uniE03A" unicode="&#xe03a;" 
d="M832 320v192h-256v64h192v384h-448v-384h192v-64h-320v-192h-192v-384h448v384h-192v128h512v-128h-192v-384h448v384h-192zM384 256v-64h-320v64h320zM384 832v64h320v-64h-320zM960 192h-320v64h320v-64z" />
    <glyph glyph-name="uniE03B" unicode="&#xe03b;" 
d="M757.76 831.936l202.24 -202.24l-353.92 -353.92l-202.24 202.24zM526.912 197.184l-195.776 195.84l-1.664 -99.52l-1.53598 -99.52l99.456 1.664zM960 512v-384h-896v320h256v64h-320v-448h1024v448h-64z" />
    <glyph glyph-name="uniE03C" unicode="&#xe03c;" 
d="M816.96 184.512c87.808 81.728 143.04 198.08 143.04 327.488c0 247.424 -200.576 448 -448 448s-448 -200.512 -448 -448c0 -129.472 55.232 -245.76 143.04 -327.552l-207.04 -248.448h192l128 64h384l127.936 -64h192.064zM704 512c0 -106.048 -85.952 -192 -192 -192
c-106.048 0 -192 85.952 -192 192c0 106.048 85.952 192 192 192c106.048 0 192 -85.888 192 -192zM512 128c-171.008 0 -315.712 111.872 -365.44 266.304v0c-3.64799 11.264 -6.65599 22.784 -9.216 34.496c-0.319992 1.28 -0.76799 2.496 -1.02399 3.776
c-2.24001 10.752 -3.84001 21.696 -5.18401 32.704c-0.320007 2.23999 -0.768005 4.35199 -1.024 6.65601c-1.34399 13.184 -2.112 26.56 -2.112 40.064c0 190.272 138.432 347.712 320 378.24v-131.328c-110.08 -28.608 -192 -127.936 -192 -246.912
c0 -141.184 114.816 -256 256 -256c141.12 0 256 114.88 256 256c0 118.912 -81.856 218.304 -192 246.912v131.392c181.568 -30.528 320 -188.032 320 -378.24c0 -13.568 -0.768005 -26.944 -2.112 -40.128c-0.255981 -2.23999 -0.768005 -4.41602 -1.02399 -6.65601
c-1.34399 -11.008 -2.94403 -21.952 -5.18402 -32.704c-0.320007 -1.34399 -0.703979 -2.56 -1.02399 -3.84c-2.56 -11.712 -5.63202 -23.168 -9.28003 -34.432v0c-49.6 -154.432 -194.368 -266.304 -365.376 -266.304zM512 384c70.656 0 128 57.344 128 128h-256
c0 -70.656 57.344 -128 128 -128z" />
    <glyph glyph-name="uniE03D" unicode="&#xe03d;" 
d="M1024 160v768h-1024v-768h384v-128h-256v-64h768v64h-256v128h384zM64 224v640h896v-640h-896z" />
    <glyph glyph-name="uniE03E" unicode="&#xe03e;" 
d="M992 328v560h-960v-560h448v-121.344l-253.184 -198.656h63.168l190.016 130.624v-2.62399h128v2.62399l190.016 -130.624h63.168l-253.184 198.656v121.344h384zM96 392v432h832v-432.064h-832v0.0639954zM574.976 727.232
c-8.32001 2.62402 -17.408 -1.98401 -20.16 -10.368l-66.432 -206.4l-86.4 139.968l-94.4 -148.352l-100.416 154.24l-62.208 -178.496c-2.944 -8.384 1.40799 -17.472 9.79199 -20.352c8.32001 -3.13599 17.408 1.40802 20.288 9.72803l40.832 116.992l92.032 -141.248
l93.76 147.2l95.936 -155.584l87.68 272.512c2.75195 8.38397 -1.92004 17.408 -10.304 20.16zM672.832 659.84c0 -46.445 37.651 -84.096 84.096 -84.096s84.096 37.651 84.096 84.096c0 46.4449 -37.651 84.0959 -84.096 84.0959s-84.096 -37.651 -84.096 -84.0959z
M672 520h64v-64h-64v64zM800 520h64v-64h-64v64z" />
    <glyph glyph-name="uniE03F" unicode="&#xe03f;" 
d="M0 768c0 -53.019 42.981 -96 96 -96c53.019 0 96 42.981 96 96s-42.981 96 -96 96c-53.019 0 -96 -42.981 -96 -96zM384 672h576c35.2 0 64 28.8 64 64s-28.8 64 -64 64h-576c-35.2 0 -64 -28.8 -64 -64s28.8 -64 64 -64zM0 448c0 -53.019 42.981 -96 96 -96
c53.019 0 96 42.981 96 96s-42.981 96 -96 96c-53.019 0 -96 -42.981 -96 -96zM960 480h-576c-35.2 0 -64 -28.8 -64 -64s28.8 -64 64 -64h576c35.2 0 64 28.8 64 64s-28.8 64 -64 64zM0 128c0 -53.019 42.981 -96 96 -96c53.019 0 96 42.981 96 96s-42.981 96 -96 96
c-53.019 0 -96 -42.981 -96 -96zM960 160h-576c-35.2 0 -64 -28.8 -64 -64c0 -35.2 28.8 -64 64 -64h576c35.2 0 64 28.8 64 64c0 35.2 -28.8 64 -64 64z" />
    <glyph glyph-name="uniE040" unicode="&#xe040;" 
d="M512 888c-242.944 0 -440 -196.992 -440 -440s197.056 -440 440 -440c243.008 0 440 196.992 440 440s-196.992 440 -440 440zM512 136c-172.032 0 -312 140.032 -312 312c0 172.032 140.032 312 312 312c172.032 0 312 -139.968 312 -312
c0 -172.032 -139.968 -312 -312 -312zM550.272 503.424v112.576c0 17.664 -14.336 32 -32 32c-17.664 0 -32 -14.336 -32 -32v-128c0 -0.640015 0.320007 -1.15201 0.384003 -1.728c0.0639954 -2.23999 0.639984 -4.16 1.216 -6.272
c0.511993 -1.98401 0.895996 -3.96799 1.79199 -5.82401c0.832001 -1.664 2.048 -3.13599 3.13599 -4.608c1.34402 -1.85599 2.62402 -3.71201 4.28802 -5.18399c0.447998 -0.447998 0.639984 -1.02402 1.15198 -1.34399l160 -128
c5.888 -4.672 12.928 -6.97601 19.968 -6.97601c9.40802 0 18.688 4.09601 25.088 12.032c11.072 13.888 8.76801 33.984 -4.992 44.992z" />
    <glyph glyph-name="uniE041" unicode="&#xe041;" 
d="M831.488 285.76l-90.496 90.496l45.248 45.248l90.496 -90.496zM868.992 493.504h128v-64h-128v64zM876.8 874.048l45.248 -45.248l-90.496 -90.496l-45.312 45.248zM580.992 917.056h64v-128h-64v128zM379.008 828.8l90.496 -90.496l-45.248 -45.248l-90.496 90.496z
M647.232 735.04l-620.224 -620.288l135.744 -135.744l620.224 620.288zM511.488 508.8l135.744 135.808l45.248 -45.248l-135.744 -135.808z" />
    <glyph glyph-name="uniE042" unicode="&#xe042;" 
d="M384 512c0 -70.692 57.308 -128 128 -128c70.692 0 128 57.308 128 128c0 70.692 -57.308 128 -128 128c-70.692 0 -128 -57.308 -128 -128zM640 320h-256c-128 0 0 -384 64 -384h128s192 384 64 384zM512 960c-247.296 0 -448 -200.64 -448 -448
c0 -161.536 85.888 -302.72 214.144 -381.568c-6.97601 32.448 -11.136 62.528 -12.288 87.232c-84.16 70.528 -137.856 176.256 -137.856 294.336c0 211.776 172.224 384 384 384s384 -172.224 384 -384c0 -118.08 -53.696 -223.808 -137.792 -294.336
c-1.216 -24.768 -5.31201 -54.784 -12.288 -87.232c128.192 78.848 214.08 220.032 214.08 381.568c0 247.36 -200.704 448 -448 448zM512 792c-154.56 0 -280 -125.376 -280 -280c0 -66.176 23.936 -126.208 62.4 -174.144c13.184 18.112 30.464 31.296 50.752 38.656
c-30.272 37.184 -49.152 83.904 -49.152 135.488c0 119.104 96.896 216 216 216s216 -96.896 216 -216c0 -51.584 -18.88 -98.304 -49.152 -135.488c20.288 -7.29599 37.568 -20.48 50.752 -38.656c38.4641 47.936 62.4 107.968 62.4 174.144
c0 154.624 -125.44 280 -280 280z" />
    <glyph glyph-name="uniE043" unicode="&#xe043;" 
d="M832 960h-640c-105.6 0 -192 -86.4 -192 -192v-640c0 -105.6 86.4 -192 192 -192h640c105.6 0 192 86.4 192 192v640c0 105.6 -86.4 192 -192 192zM286.528 128.128c-51.968 0 -94.272 42.048 -94.272 94.144c0 51.968 42.24 94.528 94.272 94.528
c52.096 0 94.4 -42.56 94.4 -94.528c-0.0639954 -52.096 -42.304 -94.144 -94.4 -94.144zM530.432 128c-1.60004 64 -39.872 174.016 -102.272 236.544c-62.464 62.656 -172.16 100.48 -236.16 102.08v123.712c256 -3.39203 459.136 -206.336 462.528 -462.336h-124.096z
M772.096 128c-3.328 320 -260.096 576.96 -580.096 580.352v123.648c384 -3.45599 700.608 -320 704 -704h-123.904z" />
    <glyph glyph-name="uniE044" unicode="&#xe044;" 
d="M466.752 855.232l-362.048 0.0640259v-362.048l452.544 -452.48l362.048 361.984zM296.704 583.296c-44.096 0 -80 35.904 -80 80s35.904 80 80 80c44.096 0 80 -35.904 80 -80s-35.904 -80 -80 -80z" />
    <glyph glyph-name="uniE045" unicode="&#xe045;" 
d="M748.672 875.52c0 0 -164.992 -78.848 -329.984 -21.568c-179.712 62.592 -260.736 37.376 -337.536 -56.32c-13.184 7.48798 -29.696 8.25598 -43.584 -0.192017c-20.224 -12.416 -26.624 -39.104 -14.08 -59.2l437.568 -710.08
c8.12799 -13.248 22.208 -20.48 36.608 -20.48c7.616 0 15.424 2.112 22.528 6.4c20.224 12.416 26.56 39.04 14.08 59.264l-194.624 315.84c76.736 93.312 157.632 118.528 337.28 56.064c164.992 -57.408 329.982 21.376 329.982 21.376z" />
    <glyph glyph-name="uniE046" unicode="&#xe046;" 
d="M321.728 497.216l128 256v192h-321.28l129.28 -448h64zM769.728 497.216l125.376 448h-317.376v-192l128 -256h64zM667.584 230.976l35.456 26.944l197.952 150.144l-292.608 6.08002l-14.6559 41.984l-81.728 234.752l-96.448 -276.736l-292.544 -6.08002
l233.408 -177.088l-12.928 -42.688l-72.064 -237.504l240.576 167.232l36.48 -25.408l204.096 -141.824l-72.064 237.568z" />
    <glyph glyph-name="uniE047" unicode="&#xe047;" 
d="M907.584 371.904c-3.776 37.696 -37.504 65.216 -75.264 61.376l-102.336 -10.432l-0.320007 3.008l81.152 8.25601c33.024 3.392 56.64 36.672 52.736 74.432c-3.84003 37.76 -33.6 65.6 -66.752 62.272l-271.36 -27.776l-38.656 -0.511963s55.744 25.28 12.992 226.88
c-42.688 201.536 -155.648 125.824 -155.648 125.824s-1.47198 -172.16 -7.552 -196.608c-6.07999 -24.448 -138.56 -282.112 -138.56 -282.112c0 -13.632 -82.048 -27.264 -81.984 -41.024c0.959999 -118.528 0 -219.904 0 -342.656
c88 22.976 135.04 -46.08 323.008 -46.08c61.376 0 138.176 9.984 202.88 20.672l169.216 17.28c29.376 3.008 50.048 35.968 46.208 73.728c-3.008 29.12 -19.904 52.16 -40.896 59.968l21.248 2.17601c33.472 3.45599 57.6 36.736 53.824 74.496
c-3.328 32.384 -26.368 56.128 -53.952 60.48l8.64001 0.895996c37.76 3.90399 65.216 37.696 61.376 75.456z" />
    <glyph glyph-name="uniE048" unicode="&#xe048;" 
d="M960 576v160c0 17.6 -14.4 32 -32 32h-32v64h64v64h-256v-64h64v-64h-32c-17.6 0 -32 -14.4 -32 -32v-160h-64v64c0 35.2 -28.8 64 -64 64h-128c-35.2 0 -64 -28.8 -64 -64v-64h-64v160c0 17.6 -14.4 32 -32 32h-32v64h64v64h-256v-64h64v-64h-32
c-17.6 0 -32 -14.4 -32 -32v-160c-35.2 0 -64 -28.8 -64 -64v-448c0 -35.2 28.8 -64 64 -64h256c35.2 0 64 28.8 64 64v384h96c-17.6 0 -32 -14.4 -32 -32s14.4 -32 32 -32h64c17.6 0 32 14.4 32 32s-14.4 32 -32 32h96v-384c0 -35.2 28.8 -64 64 -64h256
c35.2 0 64 28.8 64 64v448c0 35.2 -28.8 64 -64 64zM320 80c0 -8.832 -7.168 -16 -16 -16h-224c-8.832 0 -16 7.168 -16 16v32c0 8.832 7.168 16 16 16h224c8.832 0 16 -7.168 16 -16v-32zM960 80c0 -8.832 -7.16803 -16 -16 -16h-224c-8.83197 0 -16 7.168 -16 16v32
c0 8.832 7.16803 16 16 16h224c8.83197 0 16 -7.168 16 -16v-32z" />
    <glyph glyph-name="uniE049" unicode="&#xe049;" 
d="M32 960v-1024h960v1024h-960zM288 128h-64v-64h-64v128h128v-64zM288 320h-64v-64h-64v128h128v-64zM288 512h-64v-64h-64v128h128v-64zM480 128h-64v-64h-64v128h128v-64zM480 320h-64v-64h-64v128h128v-64zM480 512h-64v-64h-64v128h128v-64zM672 128h-64v-64h-64v128
h128v-64zM672 320h-64v-64h-64v128h128v-64zM672 512h-64v-64h-64v128h128v-64zM864 128h-64v-64h-64v128h128v-64zM864 320h-64v-64h-64v128h128v-64zM864 512h-64v-64h-64v128h128v-64zM864 640h-704v192h704v-192zM736 768h64v-64h-64v64z" />
    <glyph glyph-name="uniE04A" unicode="&#xe04a;" 
d="M864 192h-704c-35.328 0 -65.472 12.48 -90.496 37.504c-25.024 25.024 -37.504 55.168 -37.504 90.496v256c0 35.328 12.48 65.472 37.504 90.496c25.024 25.024 55.168 37.504 90.496 37.504h704c35.328 0 65.472 -12.48 90.496 -37.504
c25.024 -25.024 37.504 -55.168 37.504 -90.496v-256c0 -35.328 -12.48 -65.472 -37.504 -90.496c-25.024 -25.024 -55.168 -37.504 -90.496 -37.504zM288 544c0 8.64001 -3.13599 16.128 -9.47198 22.528c-6.33603 6.39996 -13.888 9.47198 -22.528 9.47198h-128
c-8.64 0 -16.128 -3.13599 -22.528 -9.47198s-9.472 -13.888 -9.472 -22.528v-192c0 -8.64001 3.136 -16.128 9.472 -22.528c6.336 -6.39999 13.888 -9.47198 22.528 -9.47198s16.128 3.13599 22.528 9.47198c6.39999 6.33603 9.472 13.888 9.472 22.528v32h64v-32
c0 -8.64001 3.136 -16.128 9.472 -22.528c6.336 -6.39999 13.888 -9.47198 22.528 -9.47198c8.64001 0 16.128 3.13599 22.528 9.47198c6.39999 6.33603 9.47198 13.888 9.47198 22.528v32h-32c-8.64 0 -16.128 3.13599 -22.528 9.47198
c-6.39999 6.33603 -9.472 13.888 -9.472 22.528s3.136 16.128 9.472 22.528c6.336 6.39999 13.888 9.47198 22.528 9.47198h32v96zM544 544c0 8.64001 -3.13599 16.128 -9.47198 22.528c-6.336 6.39996 -13.888 9.47198 -22.528 9.47198h-128
c-8.64001 0 -16.128 -3.13599 -22.528 -9.47198c-6.39999 -6.336 -9.47198 -13.888 -9.47198 -22.528v-192c0 -8.64001 3.13599 -16.128 9.47198 -22.528c6.33603 -6.39999 13.888 -9.47198 22.528 -9.47198s16.128 3.13599 22.528 9.47198
c6.39999 6.33603 9.47198 13.888 9.47198 22.528v32h64v-32c0 -8.64001 3.13599 -16.128 9.47198 -22.528c6.33603 -6.39999 13.888 -9.47198 22.528 -9.47198s16.128 3.13599 22.528 9.47198c6.39996 6.33603 9.47198 13.888 9.47198 22.528v192zM928 544
c0 8.64001 -3.13599 16.128 -9.47198 22.528c-6.336 6.39996 -13.888 9.47198 -22.528 9.47198h-256c-8.64001 0 -16.128 -3.13599 -22.528 -9.47198c-6.39996 -6.336 -9.47198 -13.888 -9.47198 -22.528v-192c0 -8.64001 3.13599 -16.128 9.47198 -22.528
c6.336 -6.39999 13.888 -9.47198 22.528 -9.47198s16.128 3.13599 22.528 9.47198c6.39996 6.33603 9.47198 13.888 9.47198 22.528v160h64v-160c0 -8.64001 3.13599 -16.128 9.47198 -22.528c6.336 -6.39999 13.888 -9.47198 22.528 -9.47198
s16.128 3.13599 22.528 9.47198c6.39996 6.33603 9.47198 13.888 9.47198 22.528v160h64v-160c0 -8.64001 3.13599 -16.128 9.47198 -22.528c6.336 -6.39999 13.888 -9.47198 22.528 -9.47198s16.128 3.13599 22.528 9.47198c6.39996 6.33603 9.47198 13.888 9.47198 22.528
v192zM416 512h64v-64h-64v64zM160 512h64v-64h-64v64zM800 928c0 8.64001 3.13599 16.128 9.47198 22.528c6.336 6.39996 13.888 9.47198 22.528 9.47198s16.128 -3.13599 22.528 -9.47198c6.39996 -6.336 9.47198 -13.888 9.47198 -22.528v-160h-64v160zM672 928
c0 8.64001 3.13599 16.128 9.47198 22.528c6.336 6.39996 13.888 9.47198 22.528 9.47198s16.128 -3.13599 22.528 -9.47198c6.39996 -6.336 9.47198 -13.888 9.47198 -22.528v-160h-64v160zM544 928c0 8.64001 3.13599 16.128 9.47198 22.528
c6.336 6.39996 13.888 9.47198 22.528 9.47198s16.128 -3.13599 22.528 -9.47198c6.39996 -6.336 9.47198 -13.888 9.47198 -22.528v-160h-64v160zM416 928c0 8.64001 3.13599 16.128 9.47198 22.528c6.33603 6.39996 13.888 9.47198 22.528 9.47198
s16.128 -3.13599 22.528 -9.47198c6.39999 -6.336 9.47198 -13.888 9.47198 -22.528v-160h-64v160zM288 928c0 8.64001 3.13599 16.128 9.47198 22.528c6.33603 6.39996 13.888 9.47198 22.528 9.47198s16.128 -3.13599 22.528 -9.47198
c6.39999 -6.336 9.47198 -13.888 9.47198 -22.528v-160h-64v160zM160 928c0 8.64001 3.136 16.128 9.472 22.528c6.336 6.39996 13.888 9.47198 22.528 9.47198s16.128 -3.13599 22.528 -9.47198s9.472 -13.888 9.472 -22.528v-160h-64v160zM224 -32
c0 -8.64 -3.136 -16.128 -9.472 -22.528s-13.888 -9.472 -22.528 -9.472s-16.128 3.136 -22.528 9.472s-9.472 13.888 -9.472 22.528v160h64v-160zM352 -32c0 -8.64 -3.13599 -16.128 -9.47198 -22.528c-6.33603 -6.4 -13.888 -9.472 -22.528 -9.472
s-16.128 3.136 -22.528 9.472c-6.39999 6.336 -9.47198 13.888 -9.47198 22.528v160h64v-160zM480 -32c0 -8.64 -3.13599 -16.128 -9.47198 -22.528c-6.33603 -6.4 -13.888 -9.472 -22.528 -9.472s-16.128 3.136 -22.528 9.472
c-6.39999 6.336 -9.47198 13.888 -9.47198 22.528v160h64v-160zM608 -32c0 -8.64 -3.13599 -16.128 -9.47198 -22.528s-13.888 -9.472 -22.528 -9.472s-16.128 3.136 -22.528 9.472c-6.39996 6.336 -9.47198 13.888 -9.47198 22.528v160h64v-160zM736 -32
c0 -8.64 -3.13599 -16.128 -9.47198 -22.528s-13.888 -9.472 -22.528 -9.472s-16.128 3.136 -22.528 9.472c-6.39996 6.336 -9.47198 13.888 -9.47198 22.528v160h64v-160zM864 -32c0 -8.64 -3.13599 -16.128 -9.47198 -22.528s-13.888 -9.472 -22.528 -9.472
s-16.128 3.136 -22.528 9.472c-6.39996 6.336 -9.47198 13.888 -9.47198 22.528v160h64v-160z" />
    <glyph glyph-name="uniE04B" unicode="&#xe04b;" 
d="M928 960h-768c-35.2 0 -64 -28.8 -64 -64v-128h96c17.6 0 32 -14.4 32 -32s-14.4 -32 -32 -32h-128c-17.6 0 -32 -14.464 -32 -32s14.4 -32 32 -32h32v-128h96c17.6 0 32 -14.464 32 -32c0 -17.6 -14.4 -32 -32 -32h-128c-17.6 0 -32 -14.464 -32 -32
c0 -17.6 14.4 -32 32 -32h32v-128h96c17.6 0 32 -14.464 32 -32c0 -17.6 -14.4 -32 -32 -32h-128c-17.6 0 -32 -14.464 -32 -32c0 -17.6 14.4 -32 32 -32h32v-128c0 -35.264 28.8 -64 64 -64h768c35.2 0 64 28.736 64 64v896c0 35.136 -28.8 64 -64 64zM800 512h-384v256
h384v-256z" />
    <glyph glyph-name="uniE04C" unicode="&#xe04c;" 
d="M0 960h256v-256h-256v256zM0 576h256v-256h-256v256zM0 192h256v-256h-256v256zM384 960h640v-256h-640v256zM384 576h640v-256h-640v256zM384 192h640v-256h-640v256z" />
    <glyph glyph-name="uniE04D" unicode="&#xe04d;" 
d="M512 672c0 160 -356.16 192 -512 192v-704h32c11.2 0 21.376 -0.128006 32 -0.128006v-63.872c128 0 384 38.4 384 -64h128c0 102.4 256 64 384 64v63.872c10.624 0 20.8 0.128006 32 0.128006h32v704c-155.84 0 -512 -32 -512 -192zM64 800
c31.872 -0.320007 60.608 -1.59998 87.616 -3.45599c5.248 -0.320007 10.496 -0.640015 15.808 -1.02399c1.92 -0.127991 3.968 -0.256042 5.888 -0.447998c125.952 -8.96002 259.328 -35.264 272.704 -110.848c1.216 -4.28802 1.98401 -8.448 1.98401 -12.224v-476.608
c-93.376 55.232 -268.352 60.096 -384 60.608v544zM960 256c-115.648 -0.511993 -290.624 -5.37601 -384 -60.608v476.608c0 42.432 67.648 124.864 384 128v-544z" />
    <glyph glyph-name="uniE04E" unicode="&#xe04e;" 
d="M192 704h640l-320 -512z" />
    <glyph glyph-name="uniE04F" unicode="&#xe04f;" 
d="M0 960v-1024h1024v1024h-1024zM128 0h-64v64h64v-64zM128 192h-64v64h64v-64zM128 384h-64v64h64v-64zM128 576h-64v64h64v-64zM128 768h-64v64h64v-64zM832 64h-640v320h640v-320zM832 512h-640v320h640v-320zM960 0h-64v64h64v-64zM960 192h-64v64h64v-64zM960 384h-64
v64h64v-64zM960 576h-64v64h64v-64zM960 768h-64v64h64v-64z" />
    <glyph glyph-name="uniE050" unicode="&#xe050;" 
d="M128.448 64v768h421.504l218.496 -218.496v-165.504h128v218.496l-293.504 293.504h-602.496v-1024h384v128h-128h-128zM933.056 375.232l-258.304 -258.24l-135.808 135.744l-90.496 -90.496l226.304 -226.24l348.798 348.736z" />
    <glyph glyph-name="uniE051" unicode="&#xe051;" 
d="M384 768v-512h384v-128h-512v640h128zM832 960h-640c-106.048 0 -192 -85.952 -192 -192v-640c0 -106.048 85.952 -192 192 -192h640c105.984 0 192 85.952 192 192v640c0 106.048 -86.016 192 -192 192zM960 168c0 -92.8 -75.264 -168 -168 -168h-560
c-92.8 0 -168 75.2 -168 168v560c0 92.8 75.2 168 168 168h560c92.736 0 168 -75.2 168 -168v-560z" />
    <glyph glyph-name="uniE052" unicode="&#xe052;" 
d="M768 800h-128c0 70.656 -57.344 128 -128 128s-128 -57.344 -128 -128h-128v-128h512v128zM512 736c-35.392 0 -64 28.672 -64 64s28.608 64 64 64c35.392 0 64 -28.672 64 -64s-28.608 -64 -64 -64zM292.416 160h91.392s1.34399 105.344 -3.52002 113.152
c-5.56799 8.51199 -23.936 13.888 -42.176 21.504s-22.656 10.24 -22.656 10.24l-0.127991 17.472s6.91199 5.24799 9.08798 21.696c4.22403 -1.28 8.76801 6.39999 8.96002 10.432c0.191986 3.776 -0.576019 14.528 -5.76001 13.44
c1.08801 8.064 1.664 15.296 1.40799 19.2c-1.34399 14.08 -15.232 28.864 -36.608 28.864c-21.184 0 -35.008 -14.784 -36.48 -28.864c-0.192001 -3.90399 0.575989 -11.136 1.47198 -19.2c-5.24799 1.08798 -5.88799 -9.664 -5.75999 -13.44
c0.256012 -4.03201 4.864 -11.712 9.024 -10.432c2.112 -16.448 9.08801 -21.696 9.08801 -21.696l-0.192017 -17.472s-4.224 -2.62399 -22.528 -10.24c-18.368 -7.616 -36.8 -12.992 -42.112 -21.504c-5.12 -7.80801 -3.71199 -113.152 -3.71199 -113.152h91.2zM832 800
v-192h-640v192h-192v-832h1024v832h-192zM448 96h-320v384h320v-384zM896 288h-320v64h320v-64zM896 416h-320v64h320v-64z" />
    <glyph glyph-name="uniE053" unicode="&#xe053;" 
d="M480 896c-265.096 0 -480 -214.904 -480 -480c0 -265.098 214.904 -480 480 -480c265.098 0 480 214.902 480 480c0 265.096 -214.902 480 -480 480zM751.59 256c8.57996 40.454 13.996 83.392 15.758 128h127.446c-3.336 -44.196 -13.624 -87.114 -30.68 -128h-112.524z
M208.41 576c-8.58 -40.454 -13.996 -83.392 -15.758 -128h-127.444c3.336 44.194 13.622 87.114 30.678 128h112.524zM686.036 576c9.61401 -40.962 15.398 -83.854 17.28 -128h-191.316v128h174.036zM512 640v187.338c14.59 -4.24603 29.044 -11.37 43.228 -21.37
c26.582 -18.74 52.012 -47.608 73.54 -83.486c14.882 -24.802 27.752 -52.416 38.496 -82.484h-155.264v0.00201416zM331.232 722.484c21.528 35.878 46.956 64.748 73.54 83.486c14.182 10 28.638 17.124 43.228 21.3701v-187.34h-155.264
c10.746 30.066 23.616 57.68 38.496 82.484zM448 576v-128h-191.314c1.88 44.146 7.66599 87.038 17.278 128h174.036zM95.888 256c-17.056 40.886 -27.342 83.804 -30.678 128h127.444c1.76199 -44.608 7.17799 -87.546 15.758 -128h-112.524zM256.686 384h191.314v-128
h-174.036c-9.612 40.96 -15.398 83.854 -17.278 128zM448 192v-187.34c-14.588 4.246 -29.044 11.372 -43.228 21.37c-26.584 18.74 -52.014 47.61 -73.54 83.486c-14.882 24.804 -27.75 52.418 -38.498 82.484h155.266zM628.768 109.516
c-21.528 -35.876 -46.958 -64.746 -73.54 -83.486c-14.184 -9.998 -28.638 -17.124 -43.228 -21.37v187.34h155.266c-10.746 -30.066 -23.616 -57.68 -38.498 -82.484zM512 256v128h191.314c-1.88 -44.146 -7.66602 -87.04 -17.28 -128h-174.034zM767.348 448
c-1.76202 44.608 -7.17804 87.546 -15.758 128h112.524c17.056 -40.886 27.344 -83.806 30.68 -128h-127.446zM830.658 640h-95.9c-18.638 58.762 -44.376 110.294 -75.316 151.428c42.536 -20.34 81.058 -47.616 114.714 -81.272
c21.48 -21.478 40.362 -44.938 56.502 -70.156zM185.844 710.156c33.658 33.658 72.18 60.932 114.714 81.272c-30.942 -41.134 -56.676 -92.666 -75.316 -151.428h-95.898c16.138 25.218 35.022 48.678 56.5 70.156zM129.344 192h95.898
c18.64 -58.762 44.376 -110.294 75.318 -151.43c-42.536 20.34 -81.058 47.616 -114.714 81.274c-21.48 21.478 -40.364 44.938 -56.502 70.156zM774.156 121.844c-33.656 -33.658 -72.18 -60.934 -114.714 -81.274c30.942 41.134 56.678 92.668 75.316 151.43h95.9
c-16.14 -25.218 -35.022 -48.678 -56.502 -70.156z" />
    <glyph glyph-name="uniE054" unicode="&#xe054;" 
d="M512.064 940.288c-272 0 -492.352 -220.352 -492.352 -492.288c0 -272 220.352 -492.224 492.352 -492.224c271.872 0 492.356 220.224 492.356 492.224c0 271.936 -220.484 492.288 -492.356 492.288zM512.064 27.648c-231.872 0 -420.352 188.48 -420.352 420.288
c0 231.808 188.608 420.352 420.352 420.352c231.744 0 420.352 -188.544 420.352 -420.352c0 -231.808 -188.608 -420.288 -420.352 -420.288zM620.096 609.088h102.592l-146.88 186.624l-254.784 -186.624h104.896l-64 -221.632
c-24.192 -83.712 -26.624 -141.568 -7.61603 -176.832c14.272 -26.688 35.2 -44.8 62.208 -54.016c26.24 -8.96001 71.232 -13.44 133.696 -13.44h96.512l9.02405 31.168h-19.008c-53.824 0 -88 11.328 -101.632 33.6c-13.888 22.656 -11.968 65.024 5.63202 125.952z" />
    <glyph glyph-name="uniE055" unicode="&#xe055;" 
d="M528.64 654.08c27.776 -2.23999 53.696 -9.98401 77.056 -21.888l61.504 61.504c-102.528 36.864 -214.72 40.384 -319.872 9.47205l71.36 -71.36c32.896 16.768 70.4 25.472 109.952 22.272zM305.856 464.64c2.24002 27.776 9.98401 53.696 21.888 77.056
l-104.512 104.576c-58.368 -35.968 -112.192 -83.2 -156.48 -145.152l-2.752 -34.24c42.88 -86.528 103.424 -153.984 173.568 -202.752l90.624 90.624c-16.768 32.896 -25.536 70.4 -22.336 109.888zM957.248 394.88l2.75201 34.368
c-42.88 86.464 -103.424 153.856 -173.568 202.688l-90.624 -90.624c16.768 -32.96 25.472 -70.464 22.336 -109.952c-2.23999 -27.776 -9.98401 -53.76 -21.952 -77.12l104.576 -104.512c58.368 35.904 112.192 83.136 156.48 145.152zM495.36 241.856
c-27.776 2.23999 -53.696 9.98399 -77.056 21.888l-61.504 -61.504c102.528 -36.736 214.656 -40.384 319.872 -9.472l-71.36 71.488c-32.96 -16.768 -70.464 -25.536 -109.952 -22.4zM500.224 345.728c3.96799 -0.384003 7.80801 -1.08798 11.776 -1.08798
c3.96802 0 7.80798 0.767975 11.776 1.15198l-11.776 11.712zM614.208 436.224c0.447998 4.03201 1.15198 7.80801 1.15198 11.776s-0.703979 7.87201 -1.15198 11.776l-11.712 -11.776zM500.224 550.208l11.776 -11.776l11.776 11.776
c-3.96802 0.447998 -7.80798 1.15198 -11.776 1.15198c-3.96799 0 -7.80801 -0.703979 -11.776 -1.15198zM409.792 459.776c-0.447998 -3.90399 -1.15198 -7.80801 -1.15198 -11.776s0.767975 -7.74399 1.21597 -11.776l11.648 11.776zM919.232 764.736l-90.496 90.496
l-161.536 -161.536c41.792 -15.04 81.856 -35.776 119.232 -61.76zM104.768 131.264l90.496 -90.496l161.536 161.472c-41.792 15.104 -81.856 35.776 -119.232 61.888zM328.192 354.752l-90.624 -90.624c37.376 -26.112 77.44 -46.72 119.232 -61.888l61.504 61.504
c-39.168 20.032 -70.336 52.16 -90.112 91.008zM695.808 541.312l90.624 90.624c-37.376 25.984 -77.44 46.656 -119.232 61.76l-61.504 -61.504c39.168 -20.032 70.336 -52.16 90.112 -90.88zM602.496 448l11.712 11.776c-5.44 47.616 -42.816 84.992 -90.432 90.432
l-11.776 -11.776zM421.504 448l-11.712 -11.776c5.44 -47.616 42.816 -84.992 90.432 -90.496l11.776 11.776zM828.736 40.768l90.496 90.496l-118.528 118.528c-39.552 -24.384 -80.96 -44.224 -124.032 -57.024zM195.264 855.232l-90.496 -90.496l118.528 -118.528
c39.552 24.384 80.96 44.288 124.032 56.96zM418.688 631.808l-71.36 71.36c-43.136 -12.608 -84.48 -32.576 -124.032 -56.96l104.512 -104.576c19.968 39.296 52.096 70.4 90.88 90.176zM605.312 264.256l71.36 -71.488c43.136 12.736 84.48 32.64 124.032 57.024
l-104.576 104.512c-19.904 -39.168 -52.096 -70.272 -90.816 -90.048zM512 357.504l11.776 -11.776c47.616 5.504 84.992 42.88 90.432 90.496l-11.712 11.776zM512 538.432l-11.776 11.776c-47.616 -5.44 -84.992 -42.816 -90.432 -90.432l11.712 -11.776zM602.496 448
l-90.496 -90.496l-90.496 90.432l90.496 90.496z" />
    <glyph glyph-name="uniE056" unicode="&#xe056;" 
d="M11.264 507.84l-3.136 -38.656c200.64 -405.12 741.632 -448.768 1004.61 -81.024l3.13 38.656c-200.766 405.12 -741.758 448.768 -1004.61 81.024zM493.248 216.192c-128.128 10.24 -223.36 122.496 -213.12 250.496c10.368 128.128 122.368 223.488 250.496 213.12
c128 -10.24 223.488 -122.368 213.248 -250.496c-10.368 -128 -122.624 -223.488 -250.624 -213.12zM395.648 448c0 -64.224 52.064 -116.288 116.288 -116.288c64.224 0 116.288 52.064 116.288 116.288v0c0 64.224 -52.064 116.288 -116.288 116.288
c-64.224 0 -116.288 -52.064 -116.288 -116.288v0z" />
    <glyph glyph-name="uniE057" unicode="&#xe057;" 
d="M960 576h-128v117.696l-200 202.304h-440v-320h-128l-64 -64v-320h192v-192h640v192h192v320zM128 448h-64v64h64v-64zM768 256v-192h-512v320h512v-128zM768 576h-512v256h320v-192h192v-64zM950.016 272h-60.032v96h60.032v-96zM320 320h384v-64h-384v64zM320 192h384
v-64h-384v64z" />
    <glyph glyph-name="uniE058" unicode="&#xe058;" 
d="M640 640v256h-256v-320h-128l256 -256l256 256h-128v64zM887.488 704h-183.488v-64h141.184l81.92 -192h-223.104c0 -106.048 -85.952 -192 -192 -192c-106.048 0 -192 85.952 -192 192h-223.104l81.92 192h141.184v64h-183.488l-136.512 -320v-384h1024v384z" />
    <glyph glyph-name="uniE059" unicode="&#xe059;" 
d="M512.128 594.752l285.504 252.096c-1.92004 0.383972 -3.58405 1.15198 -5.63202 1.15198h-560c-1.216 0 -2.368 -0.575989 -3.52 -0.768005zM832 808c0 4.86401 -1.15198 9.28003 -2.75201 13.376l-201.6 -177.92l199.104 -174.336
c3.008 5.76001 5.24799 11.968 5.24799 18.88v320zM195.136 823.488c-1.98401 -4.73596 -3.136 -9.98395 -3.136 -15.488v-320c0 -5.888 1.34399 -11.328 3.64799 -16.32l200.896 172.352zM597.248 616.704l-85.376 -75.456l-85.12 76.032l-196.864 -168.832
c0.768005 -0.0639954 1.34399 -0.447998 2.112 -0.447998h558.272zM887.488 640h-183.488l64 -64h77.184l81.92 -192h-223.104c0 -106.048 -85.952 -192 -192 -192c-106.048 0 -192 85.952 -192 192h-223.104l81.92 192h77.184l64 64h-183.488l-136.512 -320v-384h1024v384z
" />
    <glyph glyph-name="uniE05A" unicode="&#xe05a;" 
d="M887.488 800h-750.976l-136.512 -320v-384h1024v384zM704 544c0 -106.048 -85.952 -192 -192 -192c-106.048 0 -192 85.952 -192 192h-223.104l81.92 192h666.368l81.92 -192h-223.104z" />
    <glyph glyph-name="uniE05B" unicode="&#xe05b;" 
d="M768 608h-128v320h-256v-320h-128l256 -256zM887.488 672h-55.488v-64h13.184l81.92 -192h-223.104c0 -106.048 -85.952 -192 -192 -192c-106.048 0 -192 85.952 -192 192h-223.104l81.92 192h13.184v64h-55.488l-136.512 -320v-384h1024v384z" />
    <glyph glyph-name="uniE05C" unicode="&#xe05c;" 
d="M896 458.688v85.312h128l-128 64v77.248l-242.752 242.752h-525.248v-320l-128 -64h128v-85.312l-128 85.312v-541.504l351.232 307.392l-159.232 106.112v448h434.752l13.248 -13.248v-178.752h178.752l13.248 -13.248v-242.752l-159.232 -106.112l24.96 -21.888
l326.272 -285.504v541.504zM600.512 288h-177.024l-365.76 -320h908.544l-292.608 256z" />
    <glyph glyph-name="uniE05D" unicode="&#xe05d;" 
d="M351.232 284.416l-307.84 205.184l468.48 378.304l468.672 -378.304l-307.776 -205.184l351.232 -307.328v541.504l-511.872 434.816l-512.128 -434.816v-541.504zM966.272 -57.408l-365.76 320h-177.024l-365.76 -320h908.544z" />
    <glyph glyph-name="uniE05E" unicode="&#xe05e;" 
d="M208.064 -22.272c-39.296 0 -78.08 18.112 -114.432 54.592l-5.248 5.184c-37.504 36.992 -147.52 189.248 0.512001 345.088c74.496 78.4 177.344 180.032 286.144 287.488c58.496 57.728 119.36 117.888 179.84 178.432
c109.312 109.184 189.248 84.288 313.216 -33.7921c146.434 -139.392 173.244 -276.544 109.952 -349.632c-84.0959 -96.96 -402.24 -415.232 -415.744 -428.736c-17.792 -17.792 -46.656 -17.792 -64.512 0c-17.792 17.856 -17.792 46.656 0 64.512
c3.26401 3.328 329.344 329.472 411.328 424c18.816 21.76 21.696 104.256 -103.936 223.872c-72.256 68.864 -93.76 127.232 -185.728 35.264c-60.608 -60.608 -121.6 -120.896 -180.224 -178.752c-108.224 -107.008 -210.624 -208.128 -284.096 -285.44
c-86.4 -91.008 -41.984 -178.432 -2.62401 -217.28l5.76001 -5.696c33.472 -33.408 60.928 -42.56 109.952 6.592c13.696 13.632 41.92 41.152 77.632 75.84c98.688 95.936 282.432 274.432 319.552 320.896c11.84 14.72 28.992 50.368 12.544 64.704
c-22.592 19.84 -64.192 -20.16 -76.288 -32.896c-128.768 -135.168 -296.832 -297.088 -298.624 -298.688c-18.112 -17.472 -46.976 -17.024 -64.448 1.28c-17.408 18.112 -16.96 46.976 1.216 64.448c1.728 1.53601 168.512 162.176 295.872 295.936
c82.56 86.72 158.72 76.8 202.368 38.656c53.184 -46.528 40.704 -137.856 -1.34399 -190.4c-37.504 -46.976 -182.272 -188.48 -327.232 -329.344c-35.2 -34.24 -63.168 -61.44 -76.672 -74.88c-40.896 -40.832 -83.072 -61.248 -124.736 -61.248v0z" />
    <glyph glyph-name="uniE05F" unicode="&#xe05f;" 
d="M512 920c-260.608 0 -472 -211.392 -472 -472c0 -260.608 211.392 -472 472 -472c260.672 0 472 211.392 472 472c0 260.608 -211.328 472 -472 472zM512 792c71.296 0 137.6 -21.888 192.576 -59.136l-477.44 -477.44c-37.248 55.04 -59.136 121.344 -59.136 192.576
c0 189.696 154.304 344 344 344zM512 104c-72.256 0 -139.136 22.656 -194.56 60.736l477.824 477.76c38.144 -55.36 60.736 -122.24 60.736 -194.496c0 -189.696 -154.304 -344 -344 -344z" />
    <glyph glyph-name="uniE060" unicode="&#xe060;" 
d="M832 192h-640l320 512z" />
    <glyph glyph-name="uniE061" unicode="&#xe061;" 
d="M768 768v-640l-512 320z" />
    <glyph glyph-name="uniE062" unicode="&#xe062;" 
d="M256 128v640l512 -320z" />
    <glyph glyph-name="uniE063" unicode="&#xe063;" 
d="M192 704h640l-320 -512z" />
    <glyph glyph-name="uniE064" unicode="&#xe064;" 
d="M640 352h-256l128 192z" />
    <glyph glyph-name="uniE065" unicode="&#xe065;" 
d="M608 576v-256l-192 128z" />
    <glyph glyph-name="uniE066" unicode="&#xe066;" 
d="M416 320v256l192 -128z" />
    <glyph glyph-name="uniE067" unicode="&#xe067;" 
d="M384 544h256l-128 -192z" />
    <glyph glyph-name="uniE068" unicode="&#xe068;" 
d="M672 256v384l-320 -192z" />
    <glyph glyph-name="uniE069" unicode="&#xe069;" 
d="M352 640v-384l320 192z" />
    <glyph glyph-name="uniE06A" unicode="&#xe06a;" 
d="M704.064 608h-384.064l191.936 -320z" />
    <glyph glyph-name="uniE06B" unicode="&#xe06b;" 
d="M320 288h384.064l-191.936 320z" />
    <glyph glyph-name="uniE06C" unicode="&#xe06c;" 
d="M704.064 383.936l-384.064 0.0639954l191.936 -320zM320 512h384.064l-191.936 320z" />
    <glyph glyph-name="uniE06D" unicode="&#xe06d;" 
d="M704.064 831.936l-384.064 0.0640259l191.936 -320zM320 64h384.064l-191.936 320z" />
    <glyph glyph-name="uniE06E" unicode="&#xe06e;" 
d="M448 736l-112 128h-336v-832h1024v704h-576zM704 227.264l-90.496 -90.496l-113.152 113.152l-113.152 -113.152l-90.496 90.496l113.152 113.152l-113.088 113.088l90.496 90.496l113.152 -113.152l113.088 113.152l90.496 -90.496l-113.152 -113.152z" />
    <glyph glyph-name="uniE06F" unicode="&#xe06f;" 
d="M512 920l122.752 -353.024l373.628 -7.61603l-297.788 -225.728l108.16 -357.632l-306.752 213.376l-306.752 -213.376l108.16 357.632l-297.792 225.728l373.632 7.61603z" />
    <glyph glyph-name="uniE070" unicode="&#xe070;" 
d="M448 832l-112 128h-336v-768h448v-128h-192v-128h512v128h-192v128h448v640h-576zM64 64h128v-128h-128v128zM832 64h128v-128h-128v128z" />
    <glyph glyph-name="uniE071" unicode="&#xe071;" 
d="M512 932.16c-267.328 0 -484.16 -216.704 -484.16 -484.16c0 -267.392 216.832 -484.096 484.16 -484.096s484.096 216.768 484.096 484.096c0 267.456 -216.704 484.16 -484.096 484.16zM489.216 238.72l-34.368 -37.12l-32.96 38.4l-186.88 217.344l60.864 65.664
l151.488 -111.488l331.008 271.936l61.76 -65.472z" />
    <glyph glyph-name="uniE072" unicode="&#xe072;" 
d="M0 608l128 -576h768l128 576h-1024zM960 736h-576l-128 128h-192v-192h896v64z" />
    <glyph glyph-name="uniE073" unicode="&#xe073;" 
d="M960 736h-576l-128 128h-192v-192h896v64zM0 608l128 -576h256v192h-128l256 256l256 -256h-128v-192h256l128 576h-1024z" />
    <glyph glyph-name="uniE074" unicode="&#xe074;" 
d="M448 736l-112 128h-336v-832h1024v704h-576zM704 288h-128v-128h-128v128h-128v128h128v128h128v-128h128v-128z" />
    <glyph glyph-name="uniE075" unicode="&#xe075;" 
d="M960 736h-576l-128 128h-192v-192h896v64zM0 608l128 -576h384l-256 256h128v192h256v-192h128l-256 -256h384l128 576h-1024z" />
    <glyph glyph-name="uniE076" unicode="&#xe076;" 
d="M448 736l-112 128h-336v-832h1024v704h-576zM482.304 160l-226.304 226.24l90.496 90.56l135.808 -135.808l258.304 258.304l90.496 -90.496z" />
    <glyph glyph-name="uniE077" unicode="&#xe077;" 
d="M448 466.688h128v-64h-128v64zM448 749.312l-112 128h-336v-858.624h1024v730.624h-576zM704 146.688h-384v256h64v128h256v-128h64v-256z" />
    <glyph glyph-name="uniE078" unicode="&#xe078;" 
d="M425.088 420.864l-152.96 112.64l-61.568 -66.368l222.08 -258.24l389.12 420.48l-62.336 66.112zM512 960c-282.752 0 -512 -229.248 -512 -512s229.248 -512 512 -512s512 229.248 512 512s-229.248 512 -512 512zM512 0c-247.04 0 -448 201.024 -448 448
c0 247.04 200.96 448 448 448c246.976 0 448 -200.96 448 -448c0 -246.976 -201.024 -448 -448 -448z" />
    <glyph glyph-name="uniE600" unicode="&#xe600;" 
d="M828.736 628.992l-135.744 135.808l-180.992 -181.056l-181.056 181.056l-135.744 -135.744l181.056 -181.056l-181.056 -180.992l135.808 -135.744l180.992 180.992l180.992 -180.992l135.744 135.744l-180.992 180.992z" />
    <glyph glyph-name="uniE601" unicode="&#xe601;" 
d="M640.896 222.336c0 -8.384 -1.47198 -10.624 -10.624 -10.624h-193.216c-9.08801 0 -10.624 2.23999 -10.624 10.624v49.28c0 8.32001 1.53598 10.624 10.624 10.624h48.512v233.344h-49.28c-9.08798 0 -10.624 2.23999 -10.624 10.624v49.28
c0 8.32001 1.53601 10.624 10.624 10.624h134.848c9.08801 0 10.624 -2.30402 10.624 -10.624v-293.248h48.512c9.15204 0 10.624 -2.30399 10.624 -10.624v-49.28zM533.312 635.328c-34.88 0 -62.912 28.032 -62.912 62.848c0 34.816 28.032 62.144 62.912 62.144
c34.112 0 62.08 -27.264 62.08 -62.144s-27.968 -62.848 -62.08 -62.848zM512 940.288c-271.936 0 -492.352 -220.352 -492.352 -492.288c0 -271.936 220.416 -492.288 492.352 -492.288c271.872 0 492.35 220.352 492.35 492.288
c0 271.936 -220.478 492.288 -492.35 492.288zM512 27.648c-231.808 0 -420.352 188.544 -420.352 420.288c0 231.808 188.608 420.352 420.352 420.352c231.744 0 420.352 -188.544 420.352 -420.352c0 -231.744 -188.608 -420.288 -420.352 -420.288z" />
    <glyph glyph-name="uniE602" unicode="&#xe602;" 
d="M160 928h-128c-17.6 0 -32 -14.4 -32 -32v-896c0 -17.6 14.4 -32 32 -32h128c17.6 0 32 14.4 32 32v896c0 17.6 -14.4 32 -32 32zM128 32h-64v64h64v-64zM128 800h-64v64h64v-64zM736 544h-64c-17.6 0 -32 -14.4 -32 -32v-512c0 -17.6 14.4 -32 32 -32h64
c17.6 0 32 14.4 32 32v512c0 17.6 -14.4 32 -32 32zM992 608h-128c-17.6 0 -32 -14.4 -32 -32v-576c0 -17.6 14.4 -32 32 -32h128c17.6 0 32 14.4 32 32v576c0 17.6 -14.4 32 -32 32zM960 32h-64v64h64v-64zM960 480h-64v64h64v-64zM544 736h-256c-17.6 0 -32 -14.4 -32 -32
v-704c0 -17.6 14.4 -32 32 -32h256c17.6 0 32 14.4 32 32v704c0 17.6 -14.4 32 -32 32zM512 96h-192v64h192v-64zM512 544h-192v64h192v-64z" />
    <glyph glyph-name="uniE603" unicode="&#xe603;" 
d="M996.736 84.736c-12.48 12.48 -156.928 157.76 -156.928 157.76l-30.656 30.848s11.712 49.984 0.192017 61.504c-11.52 11.648 -19.264 19.392 -19.264 19.392s-11.392 11.584 -25.024 -1.79199c-13.44 -13.44 -48.1281 -48 -48.1281 -48l-129.408 130.24l70.016 69.568
c31.744 -16.512 67.264 -26.688 105.408 -26.816c128 -0.384003 232 103.04 232.384 231.04c0.127991 20.416 -3.328 39.936 -8.25598 58.88l-121.984 -121.344l-134.912 29.248l-28.416 135.104l122.304 121.536c-19.136 5.24799 -38.848 8.96002 -59.648 9.02399
c-128 0.320007 -232 -102.976 -232.448 -230.976c-0.127991 -42.496 12.032 -81.92 31.936 -116.224l-67.648 -67.2l-210.816 212.096l-45.824 77.056l-61.44 61.696l-119.04 65.728l-19.264 -19.072l-19.328 -19.2l65.024 -119.424l61.376 -61.76l76.8 -46.4
l210.816 -212.096l-67.712 -67.328c-34.176 20.16 -73.536 32.576 -116.096 32.704c-128 0.383972 -232 -103.04 -232.384 -231.04c-0.128 -20.352 3.328 -39.872 8.256 -58.88l121.984 121.344l134.912 -29.184l28.48 -135.104l-122.304 -121.536
c19.136 -5.248 38.912 -8.96 59.648 -9.024c128 -0.32 232 102.976 232.384 230.976c0.127991 38.208 -9.91998 73.792 -26.176 105.536l70.144 69.76l129.472 -130.24s-34.688 -34.496 -48.192 -48c-13.504 -13.376 -1.98401 -25.024 -1.98401 -25.024
s7.61597 -7.616 19.136 -19.2c11.584 -11.648 61.504 -0.192001 61.504 -0.192001l30.72 -30.912s144.384 -145.344 156.864 -157.824c12.48 -12.544 49.92 -11.712 61.504 -0.128002c11.648 11.456 30.912 30.656 30.912 30.656s19.328 19.136 30.784 30.656
c11.644 11.52 12.804 49.024 0.320007 61.568z" />
    <glyph glyph-name="uniE604" unicode="&#xe604;" 
d="M757.744 831.96l202.271 -202.242l-353.889 -353.939l-202.271 202.242zM526.912 197.184l-195.776 195.84l-1.664 -99.52l-1.53598 -99.52l99.456 1.664zM960 512v-384h-896v320h256v64h-320v-448h1024v448h-64z" />
    <glyph glyph-name="uniE605" unicode="&#xe605;" 
d="M832 834.688v-64l-704 -192l-128 64v-384l128 64l76.032 -20.736l-20.864 -81.92c-13.056 -51.328 17.984 -103.68 69.312 -116.672l188.032 -47.872c7.74402 -1.984 15.68 -3.008 23.616 -3.008c44.032 0 82.304 29.76 93.12 72.256l19.328 75.776l255.424 -69.888v-64
l192 -65.344v893.44zM495.168 140.416c-4.16 -16.448 -22.144 -27.456 -38.912 -23.04l-188.032 47.872c-17.152 4.35201 -27.52 21.76 -23.104 38.848l20.608 81.024l249.024 -67.968zM832 450.688h-704v64l704 192v-256zM960 450.688h-64v320h64v-320z" />
    <glyph glyph-name="uniE606" unicode="&#xe606;" 
d="M512 768c-223.318 0 -416.882 -130.042 -512 -320c95.118 -189.958 288.682 -320 512 -320c223.314 0 416.878 130.042 512 320c-95.116 189.958 -288.686 320 -512 320zM764.45 598.296c60.162 -38.374 111.142 -89.774 149.434 -150.296
c-38.292 -60.522 -89.274 -111.922 -149.436 -150.298c-75.594 -48.216 -162.89 -73.702 -252.448 -73.702c-89.56 0 -176.856 25.486 -252.45 73.704c-60.16 38.372 -111.14 89.772 -149.434 150.296c38.292 60.524 89.274 111.924 149.434 150.296
c3.918 2.5 7.87601 4.922 11.858 7.29999c-9.95798 -27.328 -15.408 -56.822 -15.408 -87.596c0 -141.384 114.616 -256 256 -256c141.384 0 256 114.616 256 256c0 30.774 -5.45001 60.268 -15.408 87.598c3.98004 -2.37805 7.93805 -4.802 11.858 -7.302zM512 550
c0 -53.02 -42.98 -96 -96 -96s-96 42.98 -96 96c0 53.02 42.98 96 96 96s96 -42.98 96 -96z" />
    <glyph glyph-name="uniE607" unicode="&#xe607;" 
d="M839.322 663.584c77.644 -55.03 141.37 -129.092 184.678 -215.584c-95.122 -189.958 -288.686 -320 -512 -320c-62.566 0 -122.792 10.212 -179.178 29.084l77.956 77.956c33.058 -7.29999 66.972 -11.04 101.222 -11.04c89.558 0 176.854 25.486 252.446 73.704
c60.162 38.376 111.144 89.776 149.436 150.298c-37.052 58.566 -86.014 108.55 -143.65 146.494zM512 262c-22.724 0 -44.752 2.97601 -65.728 8.534l313.186 313.184c5.56201 -20.972 8.54199 -42.994 8.54199 -65.718c0 -141.384 -114.616 -256 -256 -256zM960 960
h-53.738l-219.612 -219.612c-55.076 17.924 -113.754 27.612 -174.65 27.612c-223.318 0 -416.882 -130.042 -512 -320c42.658 -85.192 105.128 -158.308 181.194 -213.068l-181.194 -181.194v-53.738h53.738l906.262 906.262v53.738zM416 646
c48.044 0 87.846 -35.294 94.892 -81.37l-109.524 -109.524c-46.074 7.048 -81.368 46.85 -81.368 94.894c0 53.02 42.98 96 96 96zM110.116 448c38.292 60.524 89.274 111.924 149.434 150.296c3.918 2.5 7.87601 4.922 11.858 7.29999
c-9.95798 -27.328 -15.408 -56.822 -15.408 -87.596c0 -58.524 19.65 -112.448 52.698 -155.562l-58.55 -58.55c-56.072 37.642 -103.754 86.772 -140.032 144.112z" />
    <glyph glyph-name="uniE608" unicode="&#xe608;" 
d="M512 932.16c-267.392 0 -484.16 -216.768 -484.16 -484.16c0 -267.328 216.768 -484.096 484.16 -484.096c267.328 0 484.096 216.832 484.096 484.096c0 267.392 -216.768 484.16 -484.096 484.16zM794.24 290.176l-124.416 -124.416l-157.824 157.824
l-157.824 -157.824l-124.48 124.416l157.824 157.824l-157.888 157.824l124.48 124.48l157.888 -157.824l157.824 157.888l124.416 -124.48l-157.824 -157.888z" />
    <glyph glyph-name="uniE609" unicode="&#xe609;" 
d="M651.904 698.112l-139.904 -139.776l-139.904 139.776l-110.208 -110.208l139.776 -139.904l-139.776 -139.904l110.208 -110.208l139.904 139.84l139.904 -139.84l110.208 110.208l-139.84 139.904l139.84 139.904zM512 960c-282.752 0 -512 -229.248 -512 -512
s229.248 -512 512 -512s512 229.248 512 512s-229.248 512 -512 512zM512 0c-247.04 0 -448 201.024 -448 448c0 247.04 200.96 448 448 448c246.976 0 448 -200.96 448 -448c0 -246.976 -201.024 -448 -448 -448z" />
    <glyph glyph-name="uniE60A" unicode="&#xe60a;" 
d="M512 672c0 160 -356.16 192 -512 192v-704h32c11.2 0 21.376 -0.128006 32 -0.128006v-63.872c128 0 384 38.4 384 -64h128c0 102.4 256 64 384 64v63.872c10.624 0 20.8 0.128006 32 0.128006h32v704c-155.84 0 -512 -32 -512 -192zM64 800
c31.872 -0.320007 60.608 -1.59998 87.616 -3.45599c5.248 -0.320007 10.496 -0.640015 15.808 -1.02399c1.92 -0.127991 3.968 -0.256042 5.888 -0.447998c125.952 -8.96002 259.328 -35.264 272.704 -110.848c1.216 -4.28802 1.98401 -8.448 1.98401 -12.224v-476.608
c-93.376 55.232 -268.352 60.096 -384 60.608v544zM960 256c-115.648 -0.511993 -290.624 -5.37601 -384 -60.608v476.608c0 42.432 67.648 124.864 384 128v-544z" />
    <glyph glyph-name="uniE60B" unicode="&#xe60b;" 
d="M480 765.824c-114.56 65.984 -320 66.176 -320 66.176v-576s205.44 -0.192001 320 -66.112v575.936zM864 832c0 0 -205.44 -0.127991 -320 -66.112v-576c114.56 65.92 320 66.112 320 66.112v576zM928 768v-585.216l-384 -54.784h-64l-384 54.784v585.216h-64v-640
l448 -64h64l448 64v640h-64z" />
    <glyph glyph-name="uniE60C" unicode="&#xe60c;" 
d="M128.448 64v768h421.504l218.496 -218.496l-0.447998 -549.504h-192v-128h320.448v730.496l-293.504 293.504h-602.496v-1024h223.552v128h-95.552zM463.488 282.56c0 -16.064 -2.62399 -18.688 -18.688 -18.688h-65.024c-16 0 -18.688 2.62399 -18.688 18.688v111.424
c0 21.376 32.064 25.024 63.296 35.712c32.064 11.584 63.296 29.44 63.296 77.568c0 41.024 -25.856 63.296 -74.048 63.296c-55.232 0 -102.528 -29.44 -111.424 -29.44c-4.48001 0 -8.896 4.41602 -9.79202 8.96002l-23.232 60.608
c-1.79199 3.58398 -1.79199 6.27203 -1.79199 9.85602c0 23.168 106.112 52.544 165.824 52.544c107.968 0 174.784 -69.504 174.784 -166.656c0 -115.072 -91.968 -145.344 -144.512 -163.2v-60.672zM415.424 32c-42.816 0 -75.84 34.816 -75.84 74.944
c0 42.816 33.024 75.84 75.84 75.84c41.92 0 74.752 -33.856 74.752 -75.84c0.127991 -40.128 -33.728 -74.944 -74.752 -74.944z" />
    <glyph glyph-name="uniE60D" unicode="&#xe60d;" horiz-adv-x="878" 
d="M786.286 448l78.857 -77.143c11.429 -10.667 15.238 -24 11.429 -40c-4.57104 -15.619 -14.476 -25.334 -29.7141 -29.143l-107.429 -27.429l30.286 -106.286c4.57098 -15.619 0.951965 -28.953 -10.8571 -40c-11.047 -11.809 -24.381 -15.428 -40 -10.857
l-106.286 30.286l-27.429 -107.429c-3.80902 -15.238 -13.524 -25.1427 -29.143 -29.714c-4.57098 -0.762 -8.19 -1.143 -10.857 -1.143c-11.809 0 -21.524 4.1903 -29.143 12.571l-77.143 78.857l-77.143 -78.857c-10.667 -11.4287 -24 -15.2383 -40 -11.429
c-15.619 4.1907 -25.334 14.0953 -29.143 29.714l-27.429 107.429l-106.286 -30.286c-15.619 -4.571 -28.953 -0.951996 -40 10.857c-11.809 11.047 -15.428 24.381 -10.857 40l30.286 106.286l-107.429 27.429c-15.238 3.80899 -25.1427 13.524 -29.714 29.143
c-3.80933 16 0.000330091 29.333 11.429 40l78.857 77.143l-78.857 77.143c-11.4287 10.667 -15.2383 24 -11.429 40c4.57133 15.619 14.476 25.334 29.714 29.1429l107.429 27.429l-30.286 106.286c-4.571 15.619 -0.952003 28.953 10.857 40
c11.047 11.809 24.381 15.428 40 10.857l106.286 -30.286l27.429 107.429c3.80899 15.619 13.524 25.334 29.143 29.143c15.619 4.57098 28.953 0.951965 40 -10.857l77.143 -79.429l77.143 79.429c11.047 11.429 24.381 15.048 40 10.857
c15.619 -3.80902 25.334 -13.524 29.143 -29.143l27.429 -107.429l106.286 30.286c15.619 4.57098 28.953 0.952026 40 -10.857c11.809 -11.047 15.428 -24.381 10.8571 -40l-30.286 -106.286l107.429 -27.429c15.238 -3.80896 25.143 -13.524 29.7141 -29.1429
c3.80896 -16 0 -29.333 -11.429 -40z" />
    <glyph glyph-name="uniE60E" unicode="&#xe60e;" horiz-adv-x="951" 
d="M219.429 118.857c0 9.90499 -3.619 18.476 -10.857 25.714c-7.23801 7.23801 -15.809 10.857 -25.714 10.857s-18.476 -3.61899 -25.714 -10.857c-7.23799 -7.23801 -10.857 -15.809 -10.857 -25.714c0 -9.905 3.619 -18.476 10.857 -25.714
c7.23801 -7.238 15.809 -10.857 25.714 -10.857s18.476 3.619 25.714 10.857c7.23799 7.238 10.857 15.809 10.857 25.714zM587.429 358.857l-389.714 -389.714c-14.095 -14.0953 -31.238 -21.143 -51.429 -21.143c-19.809 0 -37.143 7.0477 -52 21.143l-60.571 61.714
c-14.476 13.714 -21.714 30.857 -21.714 51.429c0 20.191 7.238 37.524 21.714 52l389.143 389.143c14.857 -37.333 36.667 -70.381 65.429 -99.143c28.762 -28.762 61.81 -50.572 99.143 -65.429h-0.000976562zM949.714 607.429
c0 -14.857 -4.38098 -35.048 -13.143 -60.571c-17.905 -51.047 -49.238 -92.476 -94 -124.286c-44.762 -31.81 -94 -47.715 -147.714 -47.714c-70.476 0 -130.762 25.048 -180.857 75.143c-50.095 50.095 -75.143 110.381 -75.143 180.857
c0 70.476 25.048 130.762 75.143 180.857c50.095 50.095 110.381 75.1429 180.857 75.1429c22.095 0 45.238 -3.14294 69.429 -9.42896c24.191 -6.28601 44.667 -15.143 61.429 -26.571c6.09497 -4.19098 9.14294 -9.52399 9.14294 -16
c0 -6.47595 -3.04797 -11.809 -9.14294 -16l-167.429 -96.571v-128l110.286 -61.143c1.90497 1.14301 16.952 10.381 45.143 27.714c28.191 17.333 54 32.762 77.429 46.286c23.429 13.524 36.857 20.286 40.286 20.286c5.71399 0 10.19 -1.90497 13.429 -5.71399
s4.85797 -8.57098 4.85699 -14.286z" />
    <glyph glyph-name="uniE60F" unicode="&#xe60f;" horiz-adv-x="951" 
d="M832 265.143c0 15.238 -5.33301 28.19 -16 38.857l-118.857 118.857c-10.667 10.667 -23.619 16 -38.857 16c-16 0 -29.714 -6.095 -41.143 -18.286c1.14301 -1.14301 4.76202 -4.66602 10.857 -10.571s10.191 -10 12.286 -12.286
c2.09497 -2.28598 4.95197 -5.905 8.57098 -10.857s6.09503 -9.80899 7.42902 -14.571c1.33398 -4.76202 2.00098 -10 2 -15.714c0 -15.238 -5.33301 -28.19 -16 -38.857s-23.619 -16 -38.857 -16c-5.71399 0 -10.952 0.666992 -15.714 2
c-4.76202 1.33301 -9.61902 3.81 -14.571 7.42902c-4.95197 3.61899 -8.57098 6.47598 -10.857 8.57098s-6.38098 6.19 -12.286 12.286c-5.90497 6.09598 -9.42798 9.715 -10.571 10.857c-12.571 -11.809 -18.857 -25.714 -18.857 -41.714
c0 -15.238 5.33301 -28.19 16 -38.857l117.714 -118.286c10.286 -10.286 23.238 -15.429 38.857 -15.429c15.238 0 28.19 4.952 38.857 14.857l84 83.429c10.6671 10.667 16 23.429 16 38.286zM430.286 668c0 15.238 -5.33301 28.19 -16 38.857l-117.714 118.286
c-10.667 10.667 -23.619 16 -38.857 16c-14.857 0 -27.81 -5.14301 -38.857 -15.429l-84 -83.429c-10.667 -10.667 -16 -23.429 -16 -38.2859c0 -15.238 5.333 -28.19 16 -38.857l118.857 -118.857c10.286 -10.2859 23.238 -15.429 38.857 -15.429
c16 0 29.714 5.90497 41.143 17.714c-1.14301 1.14301 -4.76199 4.66602 -10.857 10.571c-6.095 5.90503 -10.191 10 -12.286 12.286s-4.952 5.90497 -8.57098 10.857c-3.61902 4.95203 -6.095 9.80902 -7.42902 14.571c-1.33398 4.76202 -2.00098 10 -2 15.714
c0 15.238 5.33301 28.19 16 38.8571c10.667 10.667 23.619 16 38.857 16c5.71402 0 10.952 -0.667053 15.714 -2c4.76199 -1.33301 9.61899 -3.81 14.571 -7.42902s8.57101 -6.47601 10.857 -8.57098c2.28598 -2.09503 6.38098 -6.19 12.286 -12.286
s9.42801 -9.71503 10.571 -10.857c12.571 11.809 18.857 25.714 18.857 41.714zM941.714 265.143c0 -45.714 -16.19 -84.381 -48.571 -116l-84 -83.429c-31.619 -31.6193 -70.286 -47.429 -116 -47.429c-46.095 0 -84.952 16.1903 -116.571 48.571l-117.714 118.286
c-31.619 31.619 -47.429 70.286 -47.429 116c0 46.857 16.762 86.667 50.286 119.429l-50.286 50.286c-32.762 -33.524 -72.381 -50.286 -118.857 -50.286c-45.714 0 -84.571 16 -116.571 48l-118.857 118.857c-32 32 -48 70.857 -48 116.571
c0 45.714 16.1903 84.381 48.571 116l84 83.429c31.619 31.619 70.286 47.429 116 47.429c46.095 0 84.952 -16.19 116.571 -48.571l117.714 -118.286c31.619 -31.619 47.429 -70.286 47.429 -116c0 -46.857 -16.762 -86.667 -50.286 -119.429l50.286 -50.286
c32.762 33.524 72.381 50.286 118.857 50.286c45.714 0 84.571 -16 116.571 -48l118.857 -118.857c32 -32 48 -70.857 48 -116.571z" />
    <glyph glyph-name="uniE611" unicode="&#xe611;" 
d="M0 544v-192c0 -17.672 14.328 -32 32 -32h960c17.67 0 32 14.328 32 32v192c0 17.672 -14.33 32 -32 32h-960c-17.672 0 -32 -14.328 -32 -32z" />
    <glyph glyph-name="uniE612" unicode="&#xe612;" 
d="M992 576h-352v352c0 17.672 -14.328 32 -32 32h-192c-17.672 0 -32 -14.328 -32 -32v-352h-352c-17.672 0 -32 -14.328 -32 -32v-192c0 -17.672 14.328 -32 32 -32h352v-352c0 -17.672 14.328 -32 32 -32h192c17.672 0 32 14.328 32 32v352h352c17.67 0 32 14.328 32 32
v192c0 17.672 -14.33 32 -32 32z" />
    <glyph glyph-name="uniE613" unicode="&#xe613;" 
d="M254.976 296.96v267.264h103.424l-179.2 203.776l-179.2 -203.776h103.424v-308.224c0 -56.525 45.824 -102.4 102.4 -102.4h459.776l-131.174 143.36h-279.45zM920.525 357.376v308.224c0 56.525 -45.875 102.4 -102.4 102.4h-459.725l131.123 -143.36h279.501v-267.264
h-103.424l179.2 -203.776l179.2 203.776h-103.475z" />
    <glyph glyph-name="uniE614" unicode="&#xe614;" 
d="M286.704 80.998c-13.722 -13.875 -13.722 -36.25 0 -50.125c13.722 -13.875 35.891 -13.875 49.613 0l400.896 404.838c13.722 13.875 13.722 36.301 0 50.125l-400.896 404.89c-13.722 13.875 -35.891 13.875 -49.613 0c-13.722 -13.875 -13.722 -36.25 0 -50.125
l365.568 -379.802l-365.568 -379.802v0.000999451z" />
    <glyph glyph-name="uniE615" unicode="&#xe615;" 
d="M976 -64h-672c-26.51 0 -48 21.49 -48 48c0 68.862 29.068 152.204 77.758 222.942c40.692 59.118 90.684 103.62 144.678 129.61c-23.798 21.644 -44.294 48.026 -60.508 78.122c-26 48.262 -39.746 104.048 -39.746 161.328c0 79.606 26.204 154.822 73.786 211.79
c49.664 59.46 116.442 92.208 188.032 92.208s138.368 -32.748 188.034 -92.21c47.58 -56.968 73.786 -132.182 73.786 -211.79c0 -57.28 -13.744 -113.066 -39.744 -161.328c-16.214 -30.096 -36.71 -56.478 -60.51 -78.122c53.994 -25.99 103.986 -70.492 144.678 -129.61
c48.688 -70.736 77.756 -154.078 77.756 -222.94c0 -26.51 -21.49 -48 -48 -48zM358.074 32h563.852c-9.22601 39.34 -28.52 82.384 -54.762 120.51c-41.454 60.226 -93.176 99.622 -145.638 110.926c-22.106 4.76401 -37.888 24.31 -37.888 46.924v34.292
c0 17.26 9.26599 33.19 24.27 41.722c59.478 33.832 97.912 108.266 97.912 189.626c0 114.692 -74.384 208 -165.818 208c-91.434 0 -165.818 -93.308 -165.818 -208c0 -81.36 38.434 -155.792 97.914 -189.626c15.002 -8.534 24.268 -24.462 24.268 -41.722v-34.292
c0 -22.614 -15.7841 -42.16 -37.888 -46.924c-52.462 -11.304 -104.184 -50.7 -145.64 -110.926c-26.246 -38.126 -45.536 -81.17 -54.764 -120.51zM197.114 96h-95.04c9.228 39.34 28.518 82.384 54.76 120.51c41.456 60.226 93.178 99.622 145.64 110.926
c22.106 4.76401 37.888 24.31 37.888 46.924v34.292c0 17.26 -9.26599 33.19 -24.268 41.722c-59.48 33.834 -97.914 108.266 -97.914 189.626c0 114.692 74.384 208 165.818 208c6.25403 0 12.426 -0.452026 18.502 -1.302c26.358 29.334 56.234 53.174 88.642 71.004
c-33.192 17.232 -69.5 26.298 -107.142 26.298c-71.59 0 -138.368 -32.748 -188.034 -92.21c-47.58 -56.968 -73.784 -132.184 -73.784 -211.79c0 -57.28 13.744 -113.066 39.746 -161.328c16.214 -30.096 36.71 -56.476 60.508 -78.122
c-53.994 -25.99 -103.986 -70.492 -144.678 -129.61c-48.69 -70.736 -77.758 -154.078 -77.758 -222.94c0 -26.51 21.49 -48 48 -48h132.386c1.476 31.026 7.198 63.412 16.728 96z" />
    <glyph glyph-name="uniE616" unicode="&#xe616;" 
d="M256 640c0 141.385 114.615 256 256 256s256 -114.615 256 -256s-114.615 -256 -256 -256s-256 114.615 -256 256zM768 320h-512c-141.384 0 -256 -114.618 -256 -256v-64h1024v64c0 141.382 -114.616 256 -256 256z" />
    <glyph glyph-name="uniE617" unicode="&#xe617;" 
d="M819.302 655.36h-552.96v112.64l-215.04 -184.32l215.04 -184.32v112.64h512v-215.04h-665.6v-143.36h706.56c56.525 0 102.4 45.875 102.4 102.4v296.96c0 56.576 -45.926 102.4 -102.4 102.4z" />
    <glyph glyph-name="uniE618" unicode="&#xe618;" 
d="M737.229 80.998c13.722 -13.875 13.722 -36.25 0 -50.125c-13.722 -13.875 -35.891 -13.875 -49.613 0l-400.896 404.838c-13.722 13.875 -13.722 36.301 0 50.125l400.896 404.89c13.722 13.875 35.891 13.875 49.613 0s13.722 -36.25 0 -50.125l-365.568 -379.802
l365.568 -379.802v0.000999451z" />
    </font>
</defs>
</svg>
