<?xml version="1.0" encoding="utf-8"?>
<!-- Generator: Adobe Illustrator 15.0.2, SVG Export Plug-In . SVG Version: 6.00 Build 0)  -->
<!DOCTYPE svg PUBLIC "-//W3C//DTD SVG 1.1//EN" "http://www.w3.org/Graphics/SVG/1.1/DTD/svg11.dtd">
<svg version="1.1" id="Layer_1" xmlns="http://www.w3.org/2000/svg" xmlns:xlink="http://www.w3.org/1999/xlink" x="0px" y="0px"
	 width="405px" height="52px" viewBox="0 0 405 52" enable-background="new 0 0 405 52" xml:space="preserve">
<g id="Layer_2">
	<rect y="-1.75" fill="#57068C" width="405.023" height="53.75"/>
</g>
<g id="Layer_1_1_">
	<path fill="#FFFFFF" d="M214.236-1.303c1.115,0,2.229,0,3.343,0c0,17.045,0,34.089,0,51.134c-1.07-0.082-2.474,0.162-3.343-0.126
		C214.236,32.703,214.236,15.698,214.236-1.303z"/>
	<path fill="#FFFFFF" d="M204.208,7.734c-0.792,0.983-1.805,1.746-2.599,2.726c-4.533-4.186-9.695-7.702-18.078-7.181
		c-11.214,0.697-19.157,9.997-19.186,21.914c-0.03,10.304,5.713,17.718,13.121,20.677c4.394,1.754,9.827,1.887,14.361,0.494
		c4.261-1.308,7.211-4.015,10.275-6.562c0.062,0.472,2.333,1.653,2.356,2.229c0.017,0.438-1.497,1.422-1.858,1.734
		c-4.161,3.594-9.958,6.934-17.581,6.934c-7.656,0-13.295-3.139-17.334-7.182c-3.969-3.973-6.88-9.981-7.056-17.333
		c-0.183-7.68,2.223-13.613,6.314-18.199c3.767-4.22,9.575-7.621,16.84-8.048C193.085-0.61,199.11,3.219,204.208,7.734z"/>
	<path fill="#FFFFFF" d="M0.545,0.804c2.643,0,5.285,0,7.924,0c8.742,10.531,16.869,22.37,25.503,32.932
		c0.173,0.209,0.481,0.768,0.868,0.617c0.082-11.144-0.165-22.614,0.127-33.549c2.721,0.081,5.775-0.166,8.292,0.123
		c-0.082,16.259,0.165,32.851-0.125,48.905c-2.31,0-4.619,0-6.932,0c-6.903-8.46-13.755-17.583-20.429-26.249
		c-1.933-2.506-4.003-5.338-5.942-7.675c-0.175-0.212-0.488-0.746-0.865-0.62c0,11.513,0,23.028,0,34.543c-2.808,0-5.613,0-8.423,0
		C0.545,33.486,0.545,17.146,0.545,0.804z"/>
	<path fill="#FFFFFF" d="M52.295,0.804c1.291,0,3.367,0,5.079,0c1.539,0,3.655-0.392,4.828,0c1.009,0.334,2.961,4.334,3.59,5.322
		c3.383,5.311,7.142,11.288,10.277,16.219c4.774-7.068,9.174-14.514,13.991-21.541c3.178,0,6.355,0,9.535,0
		c0.137,0.442-0.474,1.146-0.869,1.734c-6.008,9.007-12.324,18.61-18.322,27.729c0,6.521,0,13.043,0,19.562
		c-2.889,0-5.778,0-8.667,0c0-4.891,0-9.411,0-14.363c0-1.506,0.284-3.347,0-4.703c-0.202-0.966-1.542-2.619-2.35-3.838
		C63.667,18.353,57.703,9.229,52.295,0.804z"/>
	<path fill="#FFFFFF" d="M108.137,0.804c2.848,0,5.693,0,8.541,0c1.249,12.275-3.158,32.338,3.837,38.875
		c3.338,3.114,10.981,4.01,15.6,1.11c2.838-1.774,4.874-5.333,5.2-9.781c0.687-9.354-0.515-20.453,0-30.206c2.887,0,5.777,0,8.667,0
		c-0.854,11.862,1.464,24.611-0.742,34.542c-2.095,9.424-8.44,15.165-20.056,15.229c-11.52,0.059-18.232-5.375-20.429-14.858
		c-1.173-5.054-0.744-10.94-0.744-16.961c0-5.871,0-11.714,0-17.58C108.003,0.998,107.991,0.822,108.137,0.804z"/>
	<path fill="#FFFFFF" d="M370.979,33.363c-9.86,0-19.729,0-29.588,0c0.889,7.711,5.433,14.1,13.988,14.113
		c5.403,0.01,9.264-2.533,12.255-5.569c0.927,0.521,1.57,1.317,2.354,1.979c-3.537,3.927-7.713,6.827-14.733,6.812
		c-10.762-0.027-18.188-8.679-17.453-20.431c0.531-8.583,6.566-16.208,15.101-16.96C365.209,12.224,371.396,21.641,370.979,33.363z
		 M353.77,16.403c-7.561,0.539-11.424,6.639-12.381,13.865c8.668,0,17.332,0,25.996,0C366.672,22.393,362.312,15.788,353.77,16.403z
		"/>
	<path fill="#FFFFFF" d="M294.466,17.269c-0.624,0.944-1.175,1.961-1.86,2.847c-4.199-3.255-15.309-5.641-18.44,0
		c-1.513,2.721-0.245,5.642,1.854,7.057c5.849,3.942,18.381,2.798,19.19,12.009c0.572,6.545-4.659,10.815-10.524,11.27
		c-6.785,0.521-12.297-2.02-16.465-5.076c0.635-0.934,1.329-1.805,1.978-2.725c3.225,2.271,8.327,5.145,14.364,4.578
		c4.312-0.399,8.715-4.168,6.686-8.912c-0.521-1.223-1.57-2.168-2.723-2.849c-5.92-3.481-18.149-2.84-18.574-11.638
		c-0.286-6.028,4.146-9.907,10.152-10.399C286.061,12.943,290.382,15.002,294.466,17.269z"/>
	<path fill="#FFFFFF" d="M328.514,17.269c-0.637,0.975-1.056,2.164-1.979,2.847c-3.64-3.113-14.019-5.356-17.702-0.866
		c-0.943,1.146-1.619,3.378-0.991,5.199c1.099,3.195,5.729,4.27,9.409,5.324c5.743,1.646,12.75,3.553,12.006,11.513
		c-0.488,5.28-5.098,8.745-10.521,9.163c-6.385,0.49-12.508-2.074-16.344-4.953c0.522-1.129,1.211-2.089,2.104-2.846
		c3.992,4.023,16.495,7.328,20.43,1.113c1.694-2.678,0.646-6.109-1.357-7.678c-4.729-3.691-13.698-3.127-17.709-7.676
		c-0.896-1.021-1.565-2.39-1.729-3.84c-0.709-6.332,3.896-10.602,10.026-11.141C320.467,12.875,324.581,15.147,328.514,17.269z"/>
	<path fill="#FFFFFF" d="M405.023,39.307c0,0.494,0,0.99,0,1.484c-0.811,12.686-20.354,11.23-26.987,4.458
		c0.757-0.81,1.254-1.878,2.104-2.599c3.558,3.711,15.481,7.08,19.933,1.854c1.006-1.186,1.711-3.096,1.233-5.322
		c-0.848-4.023-6.666-5.242-10.771-6.438c-4.902-1.429-10.228-3.168-10.771-8.418c-0.604-5.869,4.03-10.439,10.274-10.896
		c5.642-0.409,10.626,1.525,14.116,3.963c-0.604,0.966-1.156,1.984-1.859,2.848c-3.831-3.613-15.889-5.733-18.572,0.248
		c-0.447,1.005-0.759,2.458-0.246,3.962c1.107,3.255,6.305,4.452,10.154,5.571C399.021,31.586,404.408,33.417,405.023,39.307z"/>
	<path fill="#FFFFFF" d="M258.934,49.831c-1.113,0-2.229,0-3.342,0c0-1.897,0-3.798,0-5.694c-2.878,3.497-7.312,6.562-13.619,6.562
		c-6.699,0-13.047-3.576-13.74-9.782c-1.557-13.897,15.623-14.893,27.235-11.759c0.425-4.903-0.84-8.356-3.838-10.402
		c-5.015-3.419-14.245-1.876-19.063,0.868c-0.232-1.171-0.896-1.918-1.115-3.097c3.365-1.339,6.465-2.681,10.648-2.971
		c9.521-0.656,16.213,3.427,16.836,12.008C259.465,32.889,258.537,41.342,258.934,49.831z M232.936,34.973
		c-1.39,2.133-1.451,6.062,0,8.295c1.769,2.717,5.559,4.209,9.285,4.209c8.713,0,14.598-5.235,13.493-15.104
		C248.521,30.291,236.531,29.451,232.936,34.973z"/>
</g>
</svg>
