<svg width="100%" height="56px" id="Layer_1" data-name="Layer 1" xmlns="http://www.w3.org/2000/svg" viewBox="0 0 259.8 55.33"><defs><style>.cls-1{fill:none;stroke:#000;stroke-miterlimit:3.86;stroke-width:0.7px;}.cls-2{fill:#002f67;}.cls-3{fill:#a90f14;}.cls-4{fill:#f7941e;}.cls-5{fill:#f6921e;}</style></defs><title>myUnisa logo</title><g id="Foreground"><g id="UNISA"><path id="U" d="M45.9,28.8V12.2A1.61,1.61,0,0,0,44.2,11h-.4l-.1-1h5.2V28.9c0,6.5,3.9,10.2,9.2,10.2s9.3-3.8,9.3-10.2V10h2.9V28.9c0,9.2-6.5,12.9-12.3,12.9C52.4,41.7,45.9,38,45.9,28.8Z" transform="translate(-0.1 0.03)"/><path id="N" d="M102.6,10h2.8V41.2h-3.2L83,14.7V41.1H80.1V9.9h3l19.4,26.9V12.1a1.61,1.61,0,0,0-1.7-1.2h-.4l-.1-1Z" transform="translate(-0.1 0.03)"/><path id="I" d="M115.2,41.2V13.4l-.1-1.3a1.61,1.61,0,0,0-1.7-1.2H113l-.1-1h5.2V41.1h-2.9Z" transform="translate(-0.1 0.03)"/><path id="S" d="M143.7,32.8c0,5.5-4.7,8.9-9.7,8.9a15.8,15.8,0,0,1-7.6-2.1l.4-3.1c2.5,1.6,4.3,2.5,7.2,2.5a6.25,6.25,0,0,0,6.6-6.4c0-2.8-2.3-4.3-4.5-5.4-4.1-2.1-10-3.8-10-9.6,0-5,4.3-8.3,9.5-8.3a16.6,16.6,0,0,1,6.9,1.6l-.4,2.9a13.07,13.07,0,0,0-6.3-1.8c-3.4,0-6.6,1.9-6.6,5.5,0,2.8,2.4,4.1,4.5,5.2C138.1,24.9,143.7,26.5,143.7,32.8Z" transform="translate(-0.1 0.03)"/><path id="A" d="M177,40.1h.5l.1,1h-4.4l-4-9.5H154l-4.1,9.5h-3.1L160.4,9.9H163l12.6,29.5A1.75,1.75,0,0,0,177,40.1ZM161.6,13.7l-6.5,15.4h13Z" transform="translate(-0.1 0.03)"/></g><line class="cls-1" x1="187.8" y1="0.03" x2="187.8" y2="41.23"/><g id="FLAMES"><path id="FLAME-BLUE" class="cls-2" d="M259.6,13.6c-31,7.8-49.1-31.7-64.7-1C211.5.1,238.8,23.7,259.6,13.6Z" transform="translate(-0.1 0.03)"/><path id="FLAME-RED" class="cls-3" d="M259.9,4.8C232.6,20,193.6-11,194.3,16,205.4,5.8,247.3,21,259.9,4.8Z" transform="translate(-0.1 0.03)"/><path id="FLAME-ORANGE" class="cls-4" d="M245.5,5.5c-45.1-11.4-51.4-3.8-51.2,10.4C194.3,15.9,197-5.6,245.5,5.5Z" transform="translate(-0.1 0.03)"/></g><g id="LONG-NAME-LOWERCASE"><g id="LONG-NAME-LOWERCASE-1ST-LINE"><path id="u-2" data-name="u" d="M197.9,28.5h-.8v2.7c-.3.4-.5.9-1.1.9s-.9-.4-.9-1.2V28.5h-.8v2.6a1.44,1.44,0,0,0,1.5,1.6,1.49,1.49,0,0,0,1.4-.8v.7h.8V28.5Z" transform="translate(-0.1 0.03)"/><path id="n-2" data-name="n" d="M199,32.6h.8V29.9c.3-.4.5-.9,1.1-.9s.9.4.9,1.2v2.4h.8V30a1.44,1.44,0,0,0-1.5-1.6,1.49,1.49,0,0,0-1.4.8v-.7h-.8v4.1Z" transform="translate(-0.1 0.03)"/><path id="i-2" data-name="i" d="M203.8,26.5v.9h.8v-.9Zm.7,6.1V28.5h-.8v4.1Z" transform="translate(-0.1 0.03)"/><polygon id="v" points="205.1 28.53 206.7 32.63 207.5 32.63 209.1 28.53 208.3 28.53 207.1 31.83 205.9 28.53 205.1 28.53"/><path id="e" d="M213,31.7a2.5,2.5,0,0,1-1.4.4c-.8,0-1.3-.6-1.4-1.5h3v-.3a1.82,1.82,0,0,0-1.8-1.9,2,2,0,0,0-2,2.1,2,2,0,0,0,2.1,2.2,2.93,2.93,0,0,0,1.6-.4Zm-2.7-1.6a1,1,0,0,1,1.1-1.1c.7,0,1,.5,1.1,1.1Z" transform="translate(-0.1 0.03)"/><path id="r" d="M214.9,29.4v-.9h-.7v4.1h.8V30.3c.1-.7.5-1.2,1.1-1.2a.6.6,0,0,1,.6.3l.2-.7a1,1,0,0,0-.7-.2C215.6,28.4,215.2,28.7,214.9,29.4Z" transform="translate(-0.1 0.03)"/><path id="s-2" data-name="s" d="M218.7,28.4c-.8,0-1.6.4-1.6,1.2,0,1.3,2.1,1.1,2.1,1.9,0,.4-.4.6-.8.6a1.92,1.92,0,0,1-1.2-.4v.6a1.94,1.94,0,0,0,1.3.3c.7,0,1.5-.4,1.5-1.2,0-1.4-2.1-1.2-2.1-1.9,0-.4.4-.6.8-.6a2.28,2.28,0,0,1,1.1.3v-.6A3.6,3.6,0,0,0,218.7,28.4Z" transform="translate(-0.1 0.03)"/><path id="i2" d="M220.9,26.5v.9h.8v-.9Zm.8,6.1V28.5h-.8v4.1Z" transform="translate(-0.1 0.03)"/><path id="t" d="M223.2,27.7v.8h-.7V29h.7v2.4c0,.8.4,1.2,1.1,1.2a2.92,2.92,0,0,0,.9-.2v-.6c-.3.1-.4.2-.6.2-.4,0-.5-.3-.5-.8V29h1v-.6h-1V27.1h-.3Z" transform="translate(-0.1 0.03)"/><path id="y" d="M226.9,32.4l-.2.4c-.2.5-.4.9-.8.9a1.27,1.27,0,0,1-.6-.1v.6a2.49,2.49,0,0,0,.8.1c.7,0,1.1-.7,1.4-1.4l1.8-4.5h-.8l-1.2,3.2-1.2-3.2h-.8Z" transform="translate(-0.1 0.03)"/></g><g id="LONG-NAME-LOWERCASE-2ND-LINE"><path id="o" d="M196.2,41.2a2,2,0,0,0,2.1-2.1,2,2,0,0,0-2.1-2.1,2,2,0,0,0-2.1,2.1A2,2,0,0,0,196.2,41.2Zm0-.6c-.8,0-1.3-.7-1.3-1.6a1.31,1.31,0,1,1,2.6,0A1.31,1.31,0,0,1,196.2,40.6Z" transform="translate(-0.1 0.03)"/><path id="f" d="M199.5,41.2h.8V37.7h.8v-.6h-.8v-.4c0-.6.1-1.1.7-1.1a.75.75,0,0,1,.5.1v-.6a2,2,0,0,0-.8-.1c-1,0-1.3.6-1.3,1.7v.4h-.7v.6h.7l.1,3.5Z" transform="translate(-0.1 0.03)"/><path id="s2" d="M205.7,36.9c-.8,0-1.6.4-1.6,1.2,0,1.3,2.1,1.1,2.1,1.9,0,.4-.4.6-.8.6a1.92,1.92,0,0,1-1.2-.4v.6a1.94,1.94,0,0,0,1.3.3c.7,0,1.5-.4,1.5-1.2,0-1.4-2.1-1.2-2.1-1.9,0-.4.4-.6.8-.6a2.28,2.28,0,0,1,1.1.3v-.6A5.16,5.16,0,0,0,205.7,36.9Z" transform="translate(-0.1 0.03)"/><path id="o2" d="M209.8,41.2a2,2,0,0,0,2.1-2.1,2,2,0,0,0-2.1-2.1,2,2,0,0,0-2.1,2.1A2,2,0,0,0,209.8,41.2Zm0-.6c-.8,0-1.3-.7-1.3-1.6a1.31,1.31,0,1,1,2.6,0A1.31,1.31,0,0,1,209.8,40.6Z" transform="translate(-0.1 0.03)"/><path id="u2" d="M216.5,37h-.8v2.8c-.3.4-.5.9-1.1.9s-.9-.4-.9-1.2V37h-.8v2.6a1.44,1.44,0,0,0,1.5,1.6,1.49,1.49,0,0,0,1.4-.8v.7h.8V37Z" transform="translate(-0.1 0.03)"/><path id="t2" d="M217.9,36.2V37h-.7v.6h.7V40c0,.8.4,1.2,1.1,1.2a2.92,2.92,0,0,0,.9-.2v-.6c-.3.1-.4.2-.6.2-.4,0-.5-.3-.5-.8V37.6h1V37h-1V35.7h-.3Z" transform="translate(-0.1 0.03)"/><path id="h" d="M220.6,41.2h.8V38.5c.3-.4.5-.9,1.1-.9s.9.4.9,1.2v2.4h.8V38.6a1.44,1.44,0,0,0-1.5-1.6,1.25,1.25,0,0,0-1.3.8V35.1h-.8Z" transform="translate(-0.1 0.03)"/><path id="s3" d="M231.1,41.2c0-.2-.1-.4-.1-.8V38.3a1.16,1.16,0,0,0-.4-1,1.75,1.75,0,0,0-1.2-.4,2.5,2.5,0,0,0-1.4.4V38a1.68,1.68,0,0,1,1.3-.4c.6,0,.8.2.8.8v.4c-1.3,0-2.5.4-2.5,1.5a1.17,1.17,0,0,0,1.3,1.1,1.71,1.71,0,0,0,1.3-.7v.6l.9-.1Zm-.9-2.1v1c-.3.4-.5.7-1.1.7a.68.68,0,0,1-.7-.7C228.5,39.3,229.3,39.1,230.2,39.1Z" transform="translate(-0.1 0.03)"/><path id="f2" d="M232.4,41.2h.8V37.7h.8v-.6h-.8v-.4c0-.6.1-1.1.7-1.1a.75.75,0,0,1,.5.1v-.6a2,2,0,0,0-.8-.1c-1,0-1.3.6-1.3,1.7v.4h-.7v.6h.7l.1,3.5Z" transform="translate(-0.1 0.03)"/><path id="r2" d="M235.4,37.9V37h-.7v4.1h.8V38.9c.1-.7.5-1.2,1.1-1.2a.6.6,0,0,1,.6.3l.2-.7a1,1,0,0,0-.7-.2C236.1,36.9,235.7,37.3,235.4,37.9Z" transform="translate(-0.1 0.03)"/><path id="i3" d="M237.9,35v1h.8V35Zm.7,6.2V37h-.8v4.1h.8Z" transform="translate(-0.1 0.03)"/><path id="c" d="M241.7,41.2a2.15,2.15,0,0,0,1.1-.2v-.6a4.4,4.4,0,0,1-1,.2,1.34,1.34,0,0,1-1.4-1.5,1.42,1.42,0,0,1,1.4-1.6,1.8,1.8,0,0,1,1,.2v-.6a3.09,3.09,0,0,0-1.1-.2,2,2,0,0,0-2.1,2.2A2,2,0,0,0,241.7,41.2Z" transform="translate(-0.1 0.03)"/><path id="a2" d="M246.9,41.2c0-.2-.1-.4-.1-.8V38.3a1.16,1.16,0,0,0-.4-1,1.75,1.75,0,0,0-1.2-.4,2.5,2.5,0,0,0-1.4.4V38a1.68,1.68,0,0,1,1.3-.4c.6,0,.8.2.8.8v.4c-1.3,0-2.5.4-2.5,1.5a1.17,1.17,0,0,0,1.3,1.1,1.71,1.71,0,0,0,1.3-.7v.6l.9-.1Zm-.9-2.1v1c-.3.4-.5.7-1.1.7a.68.68,0,0,1-.7-.7C244.2,39.3,245,39.1,246,39.1Z" transform="translate(-0.1 0.03)"/></g></g></g><path class="cls-5" d="M27.1,32.7l-.2.4-1,1.4c-2.9,4-5,6-6.4,6a2.5,2.5,0,0,1-1.8-.8,2.82,2.82,0,0,1-.7-2.1,5.41,5.41,0,0,1,.9-2.8c.1-.2.7-1,1.7-2.5,1.3-1.8,1.9-3,1.9-3.6a.8.8,0,0,0-.9-.9c-2,0-5.5,4.2-10.4,12.5a4.51,4.51,0,0,0-1.3-.1,7.59,7.59,0,0,0-1.6.1l3.3-5.2c2.1-3.4,3.2-5.5,3.2-6.3s-.3-1-.9-1c-.8,0-2.2,1.2-4.1,3.6a67.24,67.24,0,0,0-5.7,8.8,5.72,5.72,0,0,0-1.4-.1,8.08,8.08,0,0,0-1.6.1L3.4,35c2.3-3.6,3.4-5.8,3.4-6.6,0-.5-.2-.7-.5-.7-.8,0-2.3,1.6-4.7,4.9-.2.2-.3.3-.4.3a.1.1,0,0,1-.1-.1,24.63,24.63,0,0,1,2.1-2.9c1.4-1.7,2.4-2.6,3.2-2.6a1.57,1.57,0,0,1,1.3.7,2.46,2.46,0,0,1,.5,1.7,8.6,8.6,0,0,1-1.4,3.7c2.8-4,4.8-6.1,6.2-6.1a2.09,2.09,0,0,1,1.6.8,3.17,3.17,0,0,1,.6,2A6.67,6.67,0,0,1,14,33.4c2.9-4,5.1-6.1,6.6-6.1a2.09,2.09,0,0,1,1.7.9,3.14,3.14,0,0,1,.7,2.1,6.77,6.77,0,0,1-1.1,3.3s-.7,1-2,2.9A4.58,4.58,0,0,0,18.8,39a.8.8,0,0,0,.9.9c1.2,0,3.2-1.9,5.9-5.8l.7-1,.4-.5c.1-.2.2-.2.2-.2S27.1,32.6,27.1,32.7Z" transform="translate(-0.1 0.03)"/><path class="cls-5" d="M41.6,32.7a13.52,13.52,0,0,1-2.5,3.1,28.7,28.7,0,0,1-7.3,5.6l-1.1,2c-2.2,4-4.5,7-7,8.9s-4.7,3-6.5,3a2.27,2.27,0,0,1-1.6-.6,2,2,0,0,1-.6-1.5c0-3.1,3.5-6.3,10.6-9.6.6-.3,1.5-.7,2.6-1.2l.3-.2,4-7.2A39,39,0,0,1,29,39.3a3,3,0,0,1-2.2,1,2.09,2.09,0,0,1-1.6-.8,2.64,2.64,0,0,1-.7-1.9,9.4,9.4,0,0,1,1.6-4.1l3.5-6a4.87,4.87,0,0,0,1.2.1,14.93,14.93,0,0,0,1.7-.2L28,34.8c-1.3,2.1-1.9,3.5-1.9,4.1s.3,1,.9,1c1.7,0,4.2-2.9,7.6-8.8l2.1-3.6a5.28,5.28,0,0,0,1.3.1,10.4,10.4,0,0,0,1.5-.2c-1.9,3-4.5,7.5-7.7,13.3a22.51,22.51,0,0,0,4.7-3.1,30.9,30.9,0,0,0,4.3-4.8,1.2,1.2,0,0,1,.4-.4C41.5,32.6,41.6,32.6,41.6,32.7Zm-13.3,10c-.2.1-1.1.6-2.6,1.3q-10.5,5.25-10.5,9.3c0,1.2.6,1.7,1.9,1.7,1.6,0,3.2-.9,4.8-2.6a53.77,53.77,0,0,0,6-9.3Z" transform="translate(-0.1 0.03)"/></svg>